<svg id="Layer_1" data-name="Layer 1" xmlns="http://www.w3.org/2000/svg" viewBox="0 0 524.12 153.19"><defs><style>.cls-1{fill:#bbfff4;}.cls-2{opacity:0.35;}.cls-3{fill:#371a45;}.cls-4{fill:#fff;}.cls-5{fill:#0f2e3a;}.cls-6{fill:#afafb2;}.cls-7{opacity:0.7;}.cls-8{fill:#22a7f0;}.cls-9{opacity:0.3;}.cls-10{fill:#390075;}.cls-11{fill:#f9195a;}.cls-12{fill:#30f9d7;}.cls-13{fill:#8746db;}</style></defs><rect class="cls-1" x="-137.13" y="-8.78" width="676" height="171"/><g class="cls-2"><ellipse class="cls-3" cx="262.06" cy="132.3" rx="48.23" ry="3.71"/></g><g class="cls-2"><ellipse class="cls-3" cx="370.06" cy="132.3" rx="48.23" ry="3.71"/></g><g class="cls-2"><ellipse class="cls-3" cx="154.06" cy="132.3" rx="48.23" ry="3.71"/></g><path class="cls-4" d="M291,124.75H230.43a123.79,123.79,0,0,1,1.13-15.41q.31-2.49.77-5.24a129.48,129.48,0,0,1,7.48-27.21q.87-2.16,1.85-4.3c.52-1.13,1.07-2.26,1.64-3.38q.63-1.23,1.29-2.46h32.23c.45.82.88,1.64,1.3,2.46q.87,1.7,1.65,3.42c.75,1.63,1.45,3.28,2.11,4.92a130,130,0,0,1,7.2,26.55c.31,1.84.56,3.6.78,5.25A122.26,122.26,0,0,1,291,124.75Z"/><path class="cls-5" d="M291,124.75H230.43a123.79,123.79,0,0,1,1.13-15.41q.31-2.49.77-5.24c.58-3.47,1.33-7.24,2.3-11.15,3.16,10.13,13.35,17.84,25.83,17.84H261c12.45,0,22.61-7.67,25.81-17.76,1,3.89,1.7,7.62,2.27,11.07.31,1.84.56,3.6.78,5.25A122.26,122.26,0,0,1,291,124.75Z"/><path class="cls-5" d="M291.69,125.47h-62v-.71a129.23,129.23,0,0,1,1.65-19.19C233,95.3,236.43,80.17,244,66.41a.72.72,0,1,1,1.26.69c-13,23.81-14,52.11-14.06,56.93h59.1a136.49,136.49,0,0,0-1.64-18.27c-1.57-10.15-5-25.09-12.43-38.66a.72.72,0,0,1,.29-1,.71.71,0,0,1,1,.29c7.54,13.76,11,28.89,12.6,39.16a132.62,132.62,0,0,1,1.65,19.19Z"/><path class="cls-5" d="M278.9,122.8H242.52a11.69,11.69,0,0,1-11.68-11.68V82a11.69,11.69,0,0,1,11.68-11.67H278.9A11.69,11.69,0,0,1,290.58,82v29.13A11.69,11.69,0,0,1,278.9,122.8Zm-36.38-51A10.24,10.24,0,0,0,232.28,82v29.13a10.25,10.25,0,0,0,10.24,10.24H278.9a10.26,10.26,0,0,0,10.24-10.24V82A10.25,10.25,0,0,0,278.9,71.76Z"/><path class="cls-4" d="M307.24,108.51s-5,23.84-6.62,24.37c-2.33.75-7.93,0-7.93,0s-11.65-1.58-22.09-2.3c-3.06-.21-6-.34-8.54-.34-2.9,0-6.36.17-9.9.44-10.06.75-20.73,2.2-20.73,2.2s-5.6.79-7.93,0c-1.63-.53-6.63-24.37-6.63-24.37,3-4.29,9.84-3.84,13.12,3.75.08-.14.17-.27.26-.4a11.67,11.67,0,0,1,6.78-4.78c5.41-1.41,10.33,1,13.81,3.61.32.24.62.48.91.72l.09.07.66.57a14.87,14.87,0,0,0,3.46,2.27c.18.08.35.16.54.23a14.21,14.21,0,0,0,5.56,1.13,14.53,14.53,0,0,0,9.56-3.63c2.93-2.58,7.47-5.56,12.66-5.38a13.18,13.18,0,0,1,4,.78,11.09,11.09,0,0,1,4.85,3.42,12.38,12.38,0,0,1,1,1.39C297.41,104.67,304.27,104.22,307.24,108.51Z"/><path class="cls-5" d="M226.5,133.92a11.25,11.25,0,0,1-3.22-.36c-.59-.19-1.4-.46-4.4-12.89-1.44-6-2.7-12-2.71-12l-.06-.3.17-.25a6.87,6.87,0,0,1,6.4-3c3,.29,5.65,2.36,7.42,5.72a12,12,0,0,1,5.51-4.06c4.47-1.62,9.16-.89,14,2.16a.72.72,0,0,1-.77,1.22c-4.4-2.8-8.68-3.48-12.7-2a10.84,10.84,0,0,0-5.51,4.52l-.73,1.15-.54-1.25c-1.52-3.54-4-5.73-6.78-6a5.43,5.43,0,0,0-4.89,2.14c2.26,10.74,5.14,22.29,6.17,23.54,1.84.54,6,.12,7.51-.1.2,0,19.68-2.64,30.73-2.64s30.53,2.62,30.72,2.64c1.49.22,5.68.64,7.52.1,1-1.25,3.91-12.8,6.17-23.54a5.43,5.43,0,0,0-4.89-2.14c-2.79.27-5.26,2.46-6.79,6l-.54,1.25-.72-1.15a10.84,10.84,0,0,0-5.51-4.52c-4.06-1.47-8.37-.76-12.81,2.1a.72.72,0,0,1-.78-1.21c4.77-3.07,9.64-3.85,14.08-2.24a12,12,0,0,1,5.51,4.06c1.77-3.36,4.42-5.43,7.42-5.72a6.84,6.84,0,0,1,6.39,3l.18.25-.06.3c0,.06-1.27,6-2.71,12-3,12.43-3.81,12.7-4.4,12.89-2.46.8-8,0-8.26,0s-19.56-2.63-30.52-2.63-30.33,2.6-30.53,2.63A41.2,41.2,0,0,1,226.5,133.92Zm73.76-1.65Z"/><path class="cls-6" d="M299.17,132.88h1.45a4.3,4.3,0,0,0,3.93-2.55c2.17-4.86,6.12-15.52,2.42-22-.11-.19-.22-.37-.34-.55,0,0-3.56-3.23-6.11,1.34C298.14,113.37,293.13,131.63,299.17,132.88Z"/><g class="cls-7"><path class="cls-4" d="M299.21,112.14l.19-.29c3.14-4.57,7.51-1.34,7.51-1.34a5.7,5.7,0,0,1,.42.55,9.73,9.73,0,0,1,1.07,2A12,12,0,0,0,307,108.3c-.11-.19-.22-.37-.34-.55,0,0-3.56-3.23-6.11,1.34A22.14,22.14,0,0,0,299.21,112.14Z"/></g><path class="cls-5" d="M308.38,113.58h-.12l-8.88-1.48a.72.72,0,0,1-.59-.83.71.71,0,0,1,.82-.59l8.89,1.48a.72.72,0,0,1-.12,1.43Z"/><path class="cls-5" d="M308.32,118.38h-.1L297.83,117a.72.72,0,0,1,.2-1.43l10.39,1.4a.72.72,0,0,1-.1,1.43Z"/><path class="cls-5" d="M307.4,123.08h-.08l-10.55-1.29a.72.72,0,0,1-.63-.8.73.73,0,0,1,.8-.63l10.55,1.3a.71.71,0,0,1,.63.8A.73.73,0,0,1,307.4,123.08Z"/><path class="cls-5" d="M305.73,128.2h-.06l-9.43-.85a.72.72,0,1,1,.13-1.43l9.43.85a.72.72,0,0,1-.07,1.43Z"/><g class="cls-2"><path class="cls-5" d="M299.17,132.88h1.45a4.3,4.3,0,0,0,3.93-2.55c.56-1.26,1.25-2.91,1.88-4.77a5.3,5.3,0,0,1-4.57,2.36h-1.73c-2.45-.43-3.38-2.84-3.41-6C295.89,127.25,296.11,132.24,299.17,132.88Z"/></g><path class="cls-5" d="M300.62,133.59H299a3.7,3.7,0,0,1-2.67-2.28c-2.47-5.42,1.58-19.05,3.53-22.56a4.93,4.93,0,0,1,3.39-2.77,5.11,5.11,0,0,1,3.83,1.25l.06.06.05.06c.13.2.26.4.38.61,3.77,6.63.12,17-2.39,22.67A5,5,0,0,1,300.62,133.59Zm-1.37-1.43h1.37A3.6,3.6,0,0,0,303.9,130c1.93-4.32,6-15.06,2.45-21.37-.09-.15-.17-.29-.26-.42a3,3,0,0,0-4.94,1.21c-2,3.66-5.58,16.65-3.48,21.25A2.38,2.38,0,0,0,299.25,132.16Z"/><path class="cls-6" d="M225,132.88H223.5a4.3,4.3,0,0,1-3.93-2.55c-2.17-4.86-6.12-15.52-2.42-22,.11-.19.22-.37.34-.55,0,0,3.56-3.23,6.11,1.34C226,113.37,231,131.63,225,132.88Z"/><g class="cls-7"><path class="cls-4" d="M224.91,112.14l-.19-.29c-3.14-4.57-7.51-1.34-7.51-1.34-.15.17-.29.36-.43.55a10.2,10.2,0,0,0-1.06,2,12,12,0,0,1,1.43-4.74c.11-.19.22-.37.34-.55,0,0,3.56-3.23,6.11,1.34A22.14,22.14,0,0,1,224.91,112.14Z"/></g><path class="cls-5" d="M215.74,113.58a.72.72,0,0,1-.12-1.43l8.89-1.48a.71.71,0,0,1,.82.59.72.72,0,0,1-.59.83l-8.88,1.48Z"/><path class="cls-5" d="M215.8,118.38a.72.72,0,0,1-.1-1.43l10.39-1.4a.72.72,0,0,1,.81.62.73.73,0,0,1-.62.81l-10.39,1.39Z"/><path class="cls-5" d="M216.71,123.08a.73.73,0,0,1-.71-.63.71.71,0,0,1,.63-.8l10.54-1.3a.74.74,0,0,1,.81.63.73.73,0,0,1-.63.8l-10.55,1.29Z"/><path class="cls-5" d="M218.39,128.2a.72.72,0,0,1-.07-1.43l9.43-.85a.72.72,0,0,1,.13,1.43l-9.43.85Z"/><g class="cls-2"><path class="cls-5" d="M225,132.88H223.5a4.3,4.3,0,0,1-3.93-2.55c-.56-1.26-1.25-2.91-1.88-4.77a5.3,5.3,0,0,0,4.57,2.36H224c2.45-.43,3.38-2.84,3.41-6C228.23,127.25,228,132.24,225,132.88Z"/></g><path class="cls-5" d="M225,133.59H223.5a5,5,0,0,1-4.59-3c-2.51-5.62-6.16-16-2.39-22.67.12-.21.25-.41.38-.61l0-.06.06-.06a5.11,5.11,0,0,1,3.83-1.25,5,5,0,0,1,3.39,2.77c2,3.51,6,17.14,3.53,22.56a3.72,3.72,0,0,1-2.67,2.28Zm-7-25.35a4.28,4.28,0,0,0-.26.42c-3.58,6.31.52,17,2.45,21.37a3.6,3.6,0,0,0,3.28,2.13h1.37a2.38,2.38,0,0,0,1.58-1.46c2.1-4.6-1.43-17.59-3.48-21.25a3,3,0,0,0-4.94-1.21Z"/><path class="cls-5" d="M241.29,132.19a.57.57,0,0,1-.25-.06.54.54,0,0,1-.23-.73c2.56-4.88,2.6-10.37.11-16.32a30,30,0,0,0-4.57-7.57.55.55,0,0,1,.05-.76.53.53,0,0,1,.76,0,30.55,30.55,0,0,1,4.75,7.84c2.59,6.18,2.54,12.15-.14,17.26A.54.54,0,0,1,241.29,132.19Z"/><path class="cls-5" d="M283.08,132.19a.53.53,0,0,1-.48-.29c-2.68-5.11-2.73-11.08-.14-17.26a31,31,0,0,1,4.74-7.84.54.54,0,1,1,.81.71,30.64,30.64,0,0,0-4.57,7.57c-2.48,6-2.44,11.44.11,16.32a.54.54,0,0,1-.22.73A.57.57,0,0,1,283.08,132.19Z"/><g class="cls-2"><path class="cls-5" d="M262.78,104c.22.34.44.67.64,1Z"/></g><path class="cls-4" d="M250.32,104.22c-3.27,1.33-8.33,1-11.79.63a3.69,3.69,0,0,1-3.21-4.22h0a3.7,3.7,0,0,1,3.83-3.16c3.23.15,8.07.22,11.14-.46"/><g class="cls-2"><path class="cls-5" d="M250.32,104.22c-3.27,1.33-8.33,1-11.78.64a3.72,3.72,0,0,1-3.22-4.23,3.57,3.57,0,0,1,.38-1.17,3.71,3.71,0,0,0,2.84,2c3.44.41,8.49.69,11.77-.63Z"/></g><path class="cls-5" d="M243.82,105.92a46.43,46.43,0,0,1-5.37-.35,4.43,4.43,0,0,1,.74-8.82c3.37.16,8,.21,10.94-.44.42-.09,1.46-.09,2.09,2s.61,5.73-1.63,6.63h0A18.71,18.71,0,0,1,243.82,105.92ZM239,98.18a3,3,0,0,0-.36,6c3.51.42,8.34.67,11.43-.58h0c.88-.36,1.06-1.8,1.09-2.4a5.33,5.33,0,0,0-.77-3.43,50.25,50.25,0,0,1-11.25.46Z"/><path class="cls-4" d="M287.12,104.85a42.83,42.83,0,0,1-5.57.35h-1.12l-.34,0-.42,0h0l-.43,0a2.48,2.48,0,0,1-.27,0l-.24,0-.36,0-.33,0H278l-.38-.07-.38-.07h0l-.21,0-.23-.06h0l-.69-.19-.36-.12-.34-.14v-3.46l0-3.75a21,21,0,0,0,2.65.39,67.32,67.32,0,0,0,8.49.07h.17a3.71,3.71,0,0,1,.44,7.39Z"/><g class="cls-2"><path class="cls-5" d="M287.12,104.85a42.71,42.71,0,0,1-5.57.35h-1.12l-.34,0-.42,0h0l-.43,0a2.48,2.48,0,0,1-.27,0l-.24,0-.36,0-.33,0H278l-.38-.07-.38-.07h0l-.21,0-.23-.06h0l-.69-.19-.35-.12-.35-.14v-3.71l.33.13.35.12.69.19h0l.23.06.21,0h0l.38.07.38.07H278l.33.05.36,0,.24,0,.27,0,.43,0h0l.42,0,.34,0h1.12a42.71,42.71,0,0,0,5.57-.35,3.66,3.66,0,0,0,2.76-1.82,3.71,3.71,0,0,1-2.76,5.54Z"/></g><path class="cls-5" d="M281.84,105.92a18.71,18.71,0,0,1-6.77-1c-2.24-.9-2.3-4.49-1.63-6.63s1.67-2,2.09-2c2.93.65,7.57.6,10.94.44a4.43,4.43,0,0,1,.74,8.82A46.43,46.43,0,0,1,281.84,105.92Zm-6.55-8.19a5.33,5.33,0,0,0-.77,3.43c0,.6.21,2,1.09,2.4h0c3.09,1.25,7.92,1,11.43.58a3,3,0,0,0-.5-6A50.25,50.25,0,0,1,275.29,97.73Z"/><path class="cls-4" d="M276.6,94.63v11.56a3.91,3.91,0,0,1-3.9,3.9H251.41a3.91,3.91,0,0,1-3.89-3.9V94.63a3.9,3.9,0,0,1,3.89-3.9H272.7a3.93,3.93,0,0,1,3.11,1.54A3.87,3.87,0,0,1,276.6,94.63Z"/><g class="cls-2"><path class="cls-5" d="M276.6,94.63v11.56a3.91,3.91,0,0,1-3.9,3.9H251.41a3.91,3.91,0,0,1-3.89-3.9v-4.33c2.28,4.44,10,6.18,16.4,5.54a2.37,2.37,0,0,0,2.1-2.89,5.66,5.66,0,0,1-.15-1.31c0-2.52,1.67-4.57,3.73-4.57s3.63,1.91,3.73,4.32c2.56-3.34,2.69-7.81,2.48-10.67A3.85,3.85,0,0,1,276.6,94.63Z"/></g><path class="cls-5" d="M272.7,110.81H251.41a4.62,4.62,0,0,1-4.61-4.62V94.63A4.62,4.62,0,0,1,251.41,90H272.7a4.62,4.62,0,0,1,4.62,4.62v11.56A4.62,4.62,0,0,1,272.7,110.81ZM251.41,91.45a3.18,3.18,0,0,0-3.18,3.18v11.56a3.19,3.19,0,0,0,3.18,3.18H272.7a3.18,3.18,0,0,0,3.18-3.18V94.63a3.18,3.18,0,0,0-3.18-3.18Z"/><circle class="cls-8" cx="269.6" cy="100.41" r="3.36"/><path class="cls-4" d="M273,100.41a3.08,3.08,0,0,1,0,.53,3.36,3.36,0,0,0-6.64,0,3.08,3.08,0,0,1,0-.53,3.36,3.36,0,1,1,6.72,0Z"/><g class="cls-2"><path class="cls-5" d="M273,100.41a3.36,3.36,0,1,1-6.72,0,3.31,3.31,0,0,1,.23-1.22,3.36,3.36,0,0,0,6.26,0A3.31,3.31,0,0,1,273,100.41Z"/></g><path class="cls-5" d="M269.6,104.31a3.9,3.9,0,1,1,3.9-3.9A3.91,3.91,0,0,1,269.6,104.31Zm0-6.72a2.82,2.82,0,1,0,2.82,2.82A2.82,2.82,0,0,0,269.6,97.59Z"/><path class="cls-5" d="M260.07,110.63a.54.54,0,0,1-.54-.54v-8l-4-3a.55.55,0,0,1-.21-.43V90.73a.54.54,0,0,1,.54-.54.54.54,0,0,1,.54.54v7.64l4,3a.55.55,0,0,1,.21.43v8.25A.54.54,0,0,1,260.07,110.63Z"/><path class="cls-4" d="M291.86,58.34h0a.64.64,0,0,1-.68-.58l-1.35-18.09a.63.63,0,0,1,.58-.67h0a6.59,6.59,0,0,1,7.08,6.09l.46,6.17A6.61,6.61,0,0,1,291.86,58.34Z"/><path class="cls-5" d="M291.81,58.47a.79.79,0,0,1-.76-.7L289.7,39.68a.76.76,0,0,1,.7-.81,6.73,6.73,0,0,1,7.22,6.21l.46,6.17a6.74,6.74,0,0,1-6.21,7.22Zm-.9-19.36h-.49a.51.51,0,0,0-.46.54l1.35,18.09a.51.51,0,0,0,.17.34.49.49,0,0,0,.37.12h0a6.47,6.47,0,0,0,6-6.94l-.46-6.17a6.45,6.45,0,0,0-6.45-6Z"/><path class="cls-5" d="M291.81,59.06a1.37,1.37,0,0,1-.88-.33,1.35,1.35,0,0,1-.47-.92l-1.35-18.09a1.35,1.35,0,0,1,1.25-1.44A7.33,7.33,0,0,1,298.21,45l.46,6.16a7.31,7.31,0,0,1-6.76,7.85h-.1Zm-1.25-19.35,1.33,17.9a5.87,5.87,0,0,0,5.34-6.3l-.46-6.17a5.88,5.88,0,0,0-6.21-5.43Z"/><path class="cls-4" d="M230.72,43.45h0a.63.63,0,0,1,.67.59l1.35,18.08a.63.63,0,0,1-.58.68h0a6.61,6.61,0,0,1-7.08-6.1l-.46-6.17A6.62,6.62,0,0,1,230.72,43.45Z"/><path class="cls-5" d="M231.66,62.94A6.75,6.75,0,0,1,225,56.71l-.46-6.17a6.74,6.74,0,0,1,6.22-7.21.76.76,0,0,1,.81.7l1.35,18.08a.74.74,0,0,1-.18.55.71.71,0,0,1-.52.26A4.35,4.35,0,0,1,231.66,62.94Zm-.93-19.36a6.48,6.48,0,0,0-6,6.94l.46,6.17a6.49,6.49,0,0,0,6.94,6,.46.46,0,0,0,.34-.18.48.48,0,0,0,.12-.36l-1.35-18.08a.5.5,0,0,0-.53-.47Z"/><path class="cls-5" d="M231.66,63.53a7.33,7.33,0,0,1-7.3-6.78l-.46-6.16a7.34,7.34,0,0,1,6.76-7.85h0A1.35,1.35,0,0,1,232.11,44l1.35,18.09a1.33,1.33,0,0,1-1.25,1.44A5,5,0,0,1,231.66,63.53Zm-1-19.35a5.89,5.89,0,0,0-5.34,6.3l.46,6.17A5.89,5.89,0,0,0,232,62.08Z"/><circle class="cls-4" cx="261.29" cy="50.9" r="30.91"/><path class="cls-5" d="M261.29,81.93a31,31,0,0,1-.11-62.07h.11a31,31,0,0,1,.11,62.07Zm0-61.81h-.11a30.78,30.78,0,0,0,.11,61.55h.11a30.78,30.78,0,0,0-.11-61.55Z"/><path class="cls-5" d="M261.29,82.52a31.63,31.63,0,0,1-.11-63.25h.11a31.65,31.65,0,0,1,31.62,31.51h0A31.65,31.65,0,0,1,261.4,82.52Zm0-61.81h-.11a30.19,30.19,0,0,0,.11,60.37h.11a30.22,30.22,0,0,0,30.08-30.29h0A30.22,30.22,0,0,0,261.29,20.71Z"/><path class="cls-5" d="M292.1,51.58a27.71,27.71,0,0,1-5,16.4c-2.45,3.53-12.68,9.82-25.45,10.17-11.84.33-22.74-5.78-25.32-9.22a27.72,27.72,0,0,1-5.63-16.2c-.29-16,13.33-22.89,30.29-23.21S291.8,35.58,292.1,51.58Z"/><path class="cls-5" d="M260.69,78.89c-11.85,0-22.33-6-25-9.53A28.47,28.47,0,0,1,230,52.74c-.14-7.82,2.88-13.91,9-18.09C244.28,31,251.89,29,261,28.8s16.74,1.57,22.21,5c6.26,4,9.5,9.93,9.65,17.75h0a28.38,28.38,0,0,1-5.15,16.82c-2.41,3.47-12.51,10.11-26,10.48Zm1.37-48.66H261c-9,.17-30,2.69-29.58,22.47a27,27,0,0,0,5.48,15.79c2.41,3.2,12.6,9,23.83,9l.9,0c12.83-.35,22.69-6.7,24.88-9.86a26.9,26.9,0,0,0,4.89-16h0C291,32.56,271.56,30.23,262.06,30.23Z"/><path class="cls-5" d="M232.74,39.76a.73.73,0,0,1-.58-1.14c5.26-8,15.67-12.79,28.56-13s23.4,4,29,11.56a.72.72,0,0,1,0,.9.71.71,0,0,1-1,.11l-.08-.06-.06-.08c-5.35-7.22-15.51-11.22-27.86-11s-22.41,4.75-27.4,12.4l0,.07A.74.74,0,0,1,232.74,39.76Z"/><g class="cls-9"><path class="cls-10" d="M266.29,125l-.08,0h-8.33l-.08,0Z"/></g><path class="cls-11" d="M298.57,94a14.05,14.05,0,0,1-.08,1.58c-.66,6.46-5.27,12.91-11,18.59-9.34,9.2-21.71,16.37-25.15,18.28a1.88,1.88,0,0,1-1.84,0c-4-2.19-20.4-11.48-29.7-23.07-3.9-4.85-6.56-10.1-6.56-15.39a18.8,18.8,0,0,1,.44-4.07c2-9,10.33-15.75,20.33-15.75a21.1,21.1,0,0,1,16.41,7.66,21.12,21.12,0,0,1,16.41-7.66C289.27,74.15,298.57,83,298.57,94Z"/><path class="cls-5" d="M224.32,91.9a20.2,20.2,0,0,0-.11,2.07v0A20.2,20.2,0,0,1,224.32,91.9Z"/><path class="cls-5" d="M224.69,97.93c-.06-.25-.12-.5-.16-.74C224.58,97.43,224.63,97.68,224.69,97.93Z"/><path class="cls-5" d="M225.08,99.34c-.1-.31-.19-.61-.27-.92C224.89,98.72,225,99,225.08,99.34Z"/><path class="cls-5" d="M226.76,103.34a27.45,27.45,0,0,1-1.17-2.54A27.45,27.45,0,0,0,226.76,103.34Z"/><path class="cls-5" d="M229.62,107.87a36.39,36.39,0,0,1-2.48-3.81A36.39,36.39,0,0,0,229.62,107.87Z"/><path class="cls-5" d="M298.57,94c0,.52,0,1-.08,1.58a19.9,19.9,0,0,1-1.76,6.19A19.19,19.19,0,0,0,298.5,94a19.54,19.54,0,0,0-.23-3s0-.11,0-.17A19.13,19.13,0,0,1,298.57,94Z"/><path class="cls-5" d="M261.38,133.39a2.64,2.64,0,0,1-1.25-.32c-6.12-3.32-36.64-20.81-36.64-39.1,0-11.33,9.64-20.54,21.49-20.54a21.77,21.77,0,0,1,16.41,7.27,21.79,21.79,0,0,1,16.41-7.27c11.85,0,21.49,9.21,21.49,20.54,0,17.82-30.51,35.68-36.63,39.08A2.66,2.66,0,0,1,261.38,133.39ZM245,74.87c-11,0-20,8.57-20,19.1,0,17.48,29.89,34.58,35.88,37.83a1.18,1.18,0,0,0,1.15,0A136.73,136.73,0,0,0,282.13,118c10.43-8.79,15.72-16.88,15.72-24,0-10.53-9-19.1-20.05-19.1A20.31,20.31,0,0,0,262,82.27l-.56.68-.55-.68A20.33,20.33,0,0,0,245,74.87Z"/><path class="cls-5" d="M263.64,85.85a.72.72,0,0,1-.62-.34c-1-1.61-2.19-3.25-2.21-3.27a.72.72,0,0,1,.16-1,.71.71,0,0,1,1,.15c0,.07,1.25,1.7,2.28,3.37a.72.72,0,0,1-.24,1A.74.74,0,0,1,263.64,85.85Z"/><path class="cls-4" d="M236.83,75.72S220.31,83,222.75,97.27c2.32,13.59,17.56,10.57,18.15,2.26.56-8-2.8-9-7-10.22-3.1-.87-4.41-3.38-4.11-5.27C230.43,80.19,236.83,75.72,236.83,75.72Z"/><path class="cls-5" d="M296.73,101.74a35.1,35.1,0,0,1-4.78,7.62l-.13,0A35.64,35.64,0,0,0,296.73,101.74Z"/><path class="cls-4" d="M285.89,75.72S302.4,83,300,97.27c-2.32,13.59-17.56,10.57-18.14,2.26-.57-8,2.8-9,7-10.22,3.1-.87,4.41-3.38,4.1-5.27C292.28,80.19,285.89,75.72,285.89,75.72Z"/><path class="cls-5" d="M232.26,107.33c-4.21,0-9-2.59-10.22-9.94-1-6.08,1.15-11.88,6.34-16.77a31.66,31.66,0,0,1,8.16-5.56.72.72,0,0,1,.7,1.24c-.06,0-6.15,4.35-6.72,7.85-.26,1.61.91,3.72,3.59,4.47,4,1.12,8.12,2.28,7.51,11-.3,4.18-4.1,7.51-8.85,7.74ZM230.8,80.41c-.48.4-1,.83-1.46,1.29-4.87,4.6-6.85,9.8-5.88,15.45,1.15,6.72,5.52,8.92,9.24,8.73,3.42-.16,7.2-2.47,7.48-6.4.53-7.51-2.55-8.38-6.46-9.47-3.48-1-5-3.87-4.62-6.09A8.39,8.39,0,0,1,230.8,80.41Z"/><path class="cls-5" d="M290.45,107.33h-.51c-4.74-.23-8.55-3.56-8.84-7.74-.62-8.68,3.51-9.84,7.5-11,2.68-.75,3.85-2.86,3.59-4.47-.57-3.5-6.66-7.8-6.72-7.85a.72.72,0,0,1,.71-1.24,31.89,31.89,0,0,1,8.15,5.56c5.19,4.89,7.38,10.69,6.34,16.77C299.42,104.74,294.66,107.33,290.45,107.33Zm1.46-26.92a8.39,8.39,0,0,1,1.7,3.51C294,86.14,292.47,89,289,90c-3.9,1.09-7,2-6.46,9.47.28,3.93,4.07,6.24,7.49,6.4,3.71.19,8.08-2,9.23-8.73,1-5.65-1-10.85-5.88-15.45C292.89,81.24,292.4,80.81,291.91,80.41Z"/><path class="cls-5" d="M299.54,90.44a.56.56,0,0,1-.48-.29,13.5,13.5,0,0,0-6.4-5.83.53.53,0,0,1-.3-.69.52.52,0,0,1,.69-.31,14.3,14.3,0,0,1,7,6.33.54.54,0,0,1-.48.79Z"/><path class="cls-5" d="M223.14,90.44a.57.57,0,0,1-.25-.06.56.56,0,0,1-.23-.73,14.39,14.39,0,0,1,7-6.33.54.54,0,0,1,.7.31.53.53,0,0,1-.31.69h0a13.55,13.55,0,0,0-6.4,5.83A.55.55,0,0,1,223.14,90.44Z"/><path class="cls-4" d="M399,124.75H338.43a123.79,123.79,0,0,1,1.13-15.41q.31-2.49.77-5.24a129.48,129.48,0,0,1,7.48-27.21q.87-2.16,1.85-4.3c.52-1.13,1.07-2.26,1.64-3.38q.63-1.23,1.29-2.46h32.23c.45.82.88,1.64,1.3,2.46q.87,1.7,1.65,3.42c.75,1.63,1.45,3.28,2.11,4.92a130,130,0,0,1,7.2,26.55c.31,1.84.56,3.6.78,5.25A122.26,122.26,0,0,1,399,124.75Z"/><path class="cls-5" d="M399,124.75H338.43a123.79,123.79,0,0,1,1.13-15.41q.31-2.49.77-5.24c.58-3.47,1.33-7.24,2.3-11.15,3.16,10.13,13.35,17.84,25.83,17.84H369c12.45,0,22.61-7.67,25.81-17.76,1,3.89,1.7,7.62,2.27,11.07.31,1.84.56,3.6.78,5.25A122.26,122.26,0,0,1,399,124.75Z"/><path class="cls-5" d="M399.69,125.47h-62v-.71a129.23,129.23,0,0,1,1.65-19.19C341,95.3,344.43,80.17,352,66.41a.72.72,0,1,1,1.26.69c-13,23.81-14,52.11-14.06,56.93h59.1a136.49,136.49,0,0,0-1.64-18.27c-1.57-10.15-5-25.09-12.43-38.66a.72.72,0,0,1,.29-1,.71.71,0,0,1,1,.29c7.54,13.76,11,28.89,12.6,39.16a132.62,132.62,0,0,1,1.65,19.19Z"/><path class="cls-5" d="M386.9,122.8H350.52a11.69,11.69,0,0,1-11.68-11.68V82a11.69,11.69,0,0,1,11.68-11.67H386.9A11.69,11.69,0,0,1,398.58,82v29.13A11.69,11.69,0,0,1,386.9,122.8Zm-36.38-51A10.24,10.24,0,0,0,340.28,82v29.13a10.25,10.25,0,0,0,10.24,10.24H386.9a10.26,10.26,0,0,0,10.24-10.24V82A10.25,10.25,0,0,0,386.9,71.76Z"/><path class="cls-4" d="M415.24,108.51s-5,23.84-6.62,24.37c-2.33.75-7.93,0-7.93,0s-11.65-1.58-22.09-2.3c-3.06-.21-6-.34-8.54-.34-2.9,0-6.36.17-9.9.44-10.06.75-20.73,2.2-20.73,2.2s-5.6.79-7.93,0c-1.63-.53-6.63-24.37-6.63-24.37,3-4.29,9.84-3.84,13.12,3.75.08-.14.17-.27.26-.4a11.67,11.67,0,0,1,6.78-4.78c5.41-1.41,10.33,1,13.81,3.61.32.24.62.48.91.72l.09.07.66.57a14.87,14.87,0,0,0,3.46,2.27c.18.08.35.16.54.23a14.21,14.21,0,0,0,5.56,1.13,14.53,14.53,0,0,0,9.56-3.63c2.93-2.58,7.47-5.56,12.66-5.38a13.18,13.18,0,0,1,4,.78,11.09,11.09,0,0,1,4.85,3.42,12.38,12.38,0,0,1,1,1.39C405.41,104.67,412.27,104.22,415.24,108.51Z"/><path class="cls-5" d="M334.5,133.92a11.25,11.25,0,0,1-3.22-.36c-.59-.19-1.4-.46-4.4-12.89-1.44-6-2.7-12-2.71-12l-.06-.3.17-.25a6.87,6.87,0,0,1,6.4-3c3,.29,5.65,2.36,7.42,5.72a12,12,0,0,1,5.51-4.06c4.47-1.62,9.16-.89,14,2.16a.72.72,0,0,1-.77,1.22c-4.4-2.8-8.68-3.48-12.7-2a10.84,10.84,0,0,0-5.51,4.52l-.73,1.15-.54-1.25c-1.52-3.54-4-5.73-6.78-6a5.43,5.43,0,0,0-4.89,2.14c2.26,10.74,5.14,22.29,6.17,23.54,1.84.54,6,.12,7.51-.1.2,0,19.68-2.64,30.73-2.64s30.53,2.62,30.72,2.64c1.49.22,5.68.64,7.52.1,1-1.25,3.91-12.8,6.17-23.54a5.43,5.43,0,0,0-4.89-2.14c-2.79.27-5.26,2.46-6.79,6l-.54,1.25-.72-1.15a10.84,10.84,0,0,0-5.51-4.52c-4.06-1.47-8.37-.76-12.81,2.1a.72.72,0,0,1-.78-1.21c4.77-3.07,9.64-3.85,14.08-2.24a12,12,0,0,1,5.51,4.06c1.77-3.36,4.42-5.43,7.42-5.72a6.84,6.84,0,0,1,6.39,3l.18.25-.06.3c0,.06-1.27,6-2.71,12-3,12.43-3.81,12.7-4.4,12.89-2.46.8-8,0-8.26,0s-19.56-2.63-30.52-2.63-30.33,2.6-30.53,2.63A41.2,41.2,0,0,1,334.5,133.92Zm73.76-1.65Z"/><path class="cls-6" d="M407.17,132.88h1.45a4.3,4.3,0,0,0,3.93-2.55c2.17-4.86,6.12-15.52,2.42-22-.11-.19-.22-.37-.34-.55,0,0-3.56-3.23-6.11,1.34C406.14,113.37,401.13,131.63,407.17,132.88Z"/><g class="cls-7"><path class="cls-4" d="M407.21,112.14l.19-.29c3.14-4.57,7.51-1.34,7.51-1.34a5.7,5.7,0,0,1,.42.55,9.73,9.73,0,0,1,1.07,2A12,12,0,0,0,415,108.3c-.11-.19-.22-.37-.34-.55,0,0-3.56-3.23-6.11,1.34A22.14,22.14,0,0,0,407.21,112.14Z"/></g><path class="cls-5" d="M416.38,113.58h-.12l-8.88-1.48a.72.72,0,0,1-.59-.83.71.71,0,0,1,.82-.59l8.89,1.48a.72.72,0,0,1-.12,1.43Z"/><path class="cls-5" d="M416.32,118.38h-.1L405.83,117a.72.72,0,0,1,.2-1.43l10.39,1.4a.72.72,0,0,1-.1,1.43Z"/><path class="cls-5" d="M415.4,123.08h-.08l-10.55-1.29a.72.72,0,0,1-.63-.8.73.73,0,0,1,.8-.63l10.55,1.3a.71.71,0,0,1,.63.8A.73.73,0,0,1,415.4,123.08Z"/><path class="cls-5" d="M413.73,128.2h-.06l-9.43-.85a.72.72,0,0,1,.13-1.43l9.43.85a.72.72,0,0,1-.07,1.43Z"/><g class="cls-2"><path class="cls-5" d="M407.17,132.88h1.45a4.3,4.3,0,0,0,3.93-2.55c.56-1.26,1.25-2.91,1.88-4.77a5.3,5.3,0,0,1-4.57,2.36h-1.73c-2.45-.43-3.38-2.84-3.41-6C403.89,127.25,404.11,132.24,407.17,132.88Z"/></g><path class="cls-5" d="M408.62,133.59H407a3.7,3.7,0,0,1-2.67-2.28c-2.47-5.42,1.58-19.05,3.53-22.56a4.93,4.93,0,0,1,3.39-2.77,5.11,5.11,0,0,1,3.83,1.25l.06.06.05.06c.13.2.26.4.38.61,3.77,6.63.12,17-2.39,22.67A5,5,0,0,1,408.62,133.59Zm-1.37-1.43h1.37A3.6,3.6,0,0,0,411.9,130c1.93-4.32,6-15.06,2.45-21.37-.09-.15-.17-.29-.26-.42a3,3,0,0,0-4.94,1.21c-2,3.66-5.58,16.65-3.48,21.25A2.38,2.38,0,0,0,407.25,132.16Z"/><path class="cls-6" d="M333,132.88H331.5a4.3,4.3,0,0,1-3.93-2.55c-2.17-4.86-6.12-15.52-2.42-22,.11-.19.22-.37.34-.55,0,0,3.56-3.23,6.11,1.34C334,113.37,339,131.63,333,132.88Z"/><g class="cls-7"><path class="cls-4" d="M332.91,112.14l-.19-.29c-3.14-4.57-7.51-1.34-7.51-1.34-.15.17-.29.36-.43.55a10.2,10.2,0,0,0-1.06,2,12,12,0,0,1,1.43-4.74c.11-.19.22-.37.34-.55,0,0,3.56-3.23,6.11,1.34A22.14,22.14,0,0,1,332.91,112.14Z"/></g><path class="cls-5" d="M323.74,113.58a.72.72,0,0,1-.12-1.43l8.89-1.48a.71.71,0,0,1,.82.59.72.72,0,0,1-.59.83l-8.88,1.48Z"/><path class="cls-5" d="M323.8,118.38a.72.72,0,0,1-.1-1.43l10.39-1.4a.72.72,0,0,1,.81.62.73.73,0,0,1-.62.81l-10.39,1.39Z"/><path class="cls-5" d="M324.71,123.08a.73.73,0,0,1-.71-.63.71.71,0,0,1,.63-.8l10.54-1.3a.74.74,0,0,1,.81.63.73.73,0,0,1-.63.8l-10.55,1.29Z"/><path class="cls-5" d="M326.39,128.2a.72.72,0,0,1-.07-1.43l9.43-.85a.72.72,0,1,1,.13,1.43l-9.43.85Z"/><g class="cls-2"><path class="cls-5" d="M333,132.88H331.5a4.3,4.3,0,0,1-3.93-2.55c-.56-1.26-1.25-2.91-1.88-4.77a5.3,5.3,0,0,0,4.57,2.36H332c2.45-.43,3.38-2.84,3.41-6C336.23,127.25,336,132.24,333,132.88Z"/></g><path class="cls-5" d="M333,133.59H331.5a5,5,0,0,1-4.59-3c-2.51-5.62-6.16-16-2.39-22.67.12-.21.25-.41.38-.61l.05-.06.06-.06a5.11,5.11,0,0,1,3.83-1.25,5,5,0,0,1,3.39,2.77c1.95,3.51,6,17.14,3.53,22.56a3.72,3.72,0,0,1-2.67,2.28Zm-7-25.35a4.28,4.28,0,0,0-.26.42c-3.58,6.31.52,17,2.45,21.37a3.6,3.6,0,0,0,3.28,2.13h1.37a2.38,2.38,0,0,0,1.58-1.46c2.1-4.6-1.43-17.59-3.48-21.25a3,3,0,0,0-4.94-1.21Z"/><path class="cls-5" d="M349.29,132.19a.57.57,0,0,1-.25-.06.54.54,0,0,1-.23-.73c2.56-4.88,2.6-10.37.11-16.32a30,30,0,0,0-4.57-7.57.55.55,0,0,1,0-.76.53.53,0,0,1,.76,0,30.55,30.55,0,0,1,4.75,7.84c2.59,6.18,2.54,12.15-.14,17.26A.54.54,0,0,1,349.29,132.19Z"/><path class="cls-5" d="M391.08,132.19a.53.53,0,0,1-.48-.29c-2.68-5.11-2.73-11.08-.14-17.26a31,31,0,0,1,4.74-7.84.54.54,0,1,1,.81.71,30.64,30.64,0,0,0-4.57,7.57c-2.48,6-2.44,11.44.11,16.32a.54.54,0,0,1-.22.73A.57.57,0,0,1,391.08,132.19Z"/><g class="cls-2"><path class="cls-5" d="M370.78,104c.22.34.44.67.64,1Z"/></g><path class="cls-4" d="M358.32,104.22c-3.27,1.33-8.33,1-11.79.63a3.69,3.69,0,0,1-3.21-4.22h0a3.7,3.7,0,0,1,3.83-3.16c3.23.15,8.07.22,11.14-.46"/><g class="cls-2"><path class="cls-5" d="M358.32,104.22c-3.27,1.33-8.33,1-11.78.64a3.72,3.72,0,0,1-3.22-4.23,3.57,3.57,0,0,1,.38-1.17,3.71,3.71,0,0,0,2.84,2c3.44.41,8.49.69,11.77-.63Z"/></g><path class="cls-5" d="M351.82,105.92a46.43,46.43,0,0,1-5.37-.35,4.43,4.43,0,0,1,.74-8.82c3.37.16,8,.21,10.94-.44.42-.09,1.46-.09,2.09,2s.61,5.73-1.63,6.63h0A18.71,18.71,0,0,1,351.82,105.92ZM347,98.18a3,3,0,0,0-.36,6c3.51.42,8.34.67,11.43-.58h0c.88-.36,1.06-1.8,1.09-2.4a5.33,5.33,0,0,0-.77-3.43,50.25,50.25,0,0,1-11.25.46Z"/><path class="cls-4" d="M395.12,104.85a42.83,42.83,0,0,1-5.57.35h-1.12l-.34,0-.42,0h0l-.43,0a2.48,2.48,0,0,1-.27,0l-.24,0-.36,0-.33,0H386l-.38-.07-.38-.07h0l-.21,0-.23-.06h0l-.69-.19-.36-.12-.34-.14v-3.46l0-3.75a21,21,0,0,0,2.65.39,67.32,67.32,0,0,0,8.49.07h.17a3.71,3.71,0,0,1,.44,7.39Z"/><g class="cls-2"><path class="cls-5" d="M395.12,104.85a42.71,42.71,0,0,1-5.57.35h-1.12l-.34,0-.42,0h0l-.43,0a2.48,2.48,0,0,1-.27,0l-.24,0-.36,0-.33,0H386l-.38-.07-.38-.07h0l-.21,0-.23-.06h0l-.69-.19-.35-.12-.35-.14v-3.71l.33.13.35.12.69.19h0l.23.06.21,0h0l.38.07.38.07H386l.33.05.36,0,.24,0,.27,0,.43,0h0l.42,0,.34,0h1.12a42.71,42.71,0,0,0,5.57-.35,3.66,3.66,0,0,0,2.76-1.82,3.71,3.71,0,0,1-2.76,5.54Z"/></g><path class="cls-5" d="M389.84,105.92a18.71,18.71,0,0,1-6.77-1c-2.24-.9-2.3-4.49-1.63-6.63s1.67-2,2.09-2c2.93.65,7.57.6,10.94.44a4.43,4.43,0,0,1,.74,8.82A46.43,46.43,0,0,1,389.84,105.92Zm-6.55-8.19a5.33,5.33,0,0,0-.77,3.43c0,.6.21,2,1.09,2.4h0c3.09,1.25,7.92,1,11.43.58a3,3,0,0,0-.5-6A50.25,50.25,0,0,1,383.29,97.73Z"/><path class="cls-4" d="M384.6,94.63v11.56a3.91,3.91,0,0,1-3.9,3.9H359.41a3.91,3.91,0,0,1-3.89-3.9V94.63a3.9,3.9,0,0,1,3.89-3.9H380.7a3.93,3.93,0,0,1,3.11,1.54A3.87,3.87,0,0,1,384.6,94.63Z"/><g class="cls-2"><path class="cls-5" d="M384.6,94.63v11.56a3.91,3.91,0,0,1-3.9,3.9H359.41a3.91,3.91,0,0,1-3.89-3.9v-4.33c2.28,4.44,10,6.18,16.4,5.54a2.37,2.37,0,0,0,2.1-2.89,5.66,5.66,0,0,1-.15-1.31c0-2.52,1.67-4.57,3.73-4.57s3.63,1.91,3.73,4.32c2.56-3.34,2.69-7.81,2.48-10.67A3.85,3.85,0,0,1,384.6,94.63Z"/></g><path class="cls-5" d="M380.7,110.81H359.41a4.62,4.62,0,0,1-4.61-4.62V94.63A4.62,4.62,0,0,1,359.41,90H380.7a4.62,4.62,0,0,1,4.62,4.62v11.56A4.62,4.62,0,0,1,380.7,110.81ZM359.41,91.45a3.18,3.18,0,0,0-3.18,3.18v11.56a3.19,3.19,0,0,0,3.18,3.18H380.7a3.18,3.18,0,0,0,3.18-3.18V94.63a3.18,3.18,0,0,0-3.18-3.18Z"/><circle class="cls-8" cx="377.6" cy="100.41" r="3.36"/><path class="cls-4" d="M381,100.41a3.08,3.08,0,0,1,0,.53,3.36,3.36,0,0,0-6.64,0,3.08,3.08,0,0,1,0-.53,3.36,3.36,0,1,1,6.72,0Z"/><g class="cls-2"><path class="cls-5" d="M381,100.41a3.36,3.36,0,1,1-6.72,0,3.31,3.31,0,0,1,.23-1.22,3.36,3.36,0,0,0,6.26,0A3.31,3.31,0,0,1,381,100.41Z"/></g><path class="cls-5" d="M377.6,104.31a3.9,3.9,0,1,1,3.9-3.9A3.91,3.91,0,0,1,377.6,104.31Zm0-6.72a2.82,2.82,0,1,0,2.82,2.82A2.82,2.82,0,0,0,377.6,97.59Z"/><path class="cls-5" d="M368.07,110.63a.54.54,0,0,1-.54-.54v-8l-4-3a.55.55,0,0,1-.21-.43V90.73a.54.54,0,0,1,.54-.54.54.54,0,0,1,.54.54v7.64l4,3a.55.55,0,0,1,.21.43v8.25A.54.54,0,0,1,368.07,110.63Z"/><path class="cls-4" d="M399.86,58.34h0a.64.64,0,0,1-.68-.58l-1.35-18.09a.63.63,0,0,1,.58-.67h0a6.59,6.59,0,0,1,7.08,6.09l.46,6.17A6.61,6.61,0,0,1,399.86,58.34Z"/><path class="cls-5" d="M399.81,58.47a.79.79,0,0,1-.76-.7L397.7,39.68a.76.76,0,0,1,.7-.81,6.73,6.73,0,0,1,7.22,6.21l.46,6.17a6.74,6.74,0,0,1-6.21,7.22Zm-.9-19.36h-.49a.51.51,0,0,0-.46.54l1.35,18.09a.51.51,0,0,0,.17.34.49.49,0,0,0,.37.12h0a6.47,6.47,0,0,0,6-6.94l-.46-6.17a6.45,6.45,0,0,0-6.45-6Z"/><path class="cls-5" d="M399.81,59.06a1.37,1.37,0,0,1-.88-.33,1.35,1.35,0,0,1-.47-.92l-1.35-18.09a1.35,1.35,0,0,1,1.25-1.44A7.33,7.33,0,0,1,406.21,45l.46,6.16a7.31,7.31,0,0,1-6.76,7.85h-.1Zm-1.25-19.35,1.33,17.9a5.87,5.87,0,0,0,5.34-6.3l-.46-6.17a5.88,5.88,0,0,0-6.21-5.43Z"/><path class="cls-4" d="M338.72,43.45h0a.63.63,0,0,1,.67.59l1.35,18.08a.63.63,0,0,1-.58.68h0a6.61,6.61,0,0,1-7.08-6.1l-.46-6.17A6.62,6.62,0,0,1,338.72,43.45Z"/><path class="cls-5" d="M339.66,62.94A6.75,6.75,0,0,1,333,56.71l-.46-6.17a6.74,6.74,0,0,1,6.22-7.21.76.76,0,0,1,.81.7l1.35,18.08a.74.74,0,0,1-.18.55.71.71,0,0,1-.52.26A4.35,4.35,0,0,1,339.66,62.94Zm-.93-19.36a6.48,6.48,0,0,0-6,6.94l.46,6.17a6.49,6.49,0,0,0,6.94,6,.46.46,0,0,0,.34-.18.48.48,0,0,0,.12-.36l-1.35-18.08a.5.5,0,0,0-.53-.47Z"/><path class="cls-5" d="M339.66,63.53a7.33,7.33,0,0,1-7.3-6.78l-.46-6.16a7.34,7.34,0,0,1,6.76-7.85h0A1.35,1.35,0,0,1,340.11,44l1.35,18.09a1.33,1.33,0,0,1-1.25,1.44A5,5,0,0,1,339.66,63.53Zm-1-19.35a5.89,5.89,0,0,0-5.34,6.3l.46,6.17A5.89,5.89,0,0,0,340,62.08Z"/><circle class="cls-4" cx="369.29" cy="50.9" r="30.91"/><path class="cls-5" d="M369.29,81.93a31,31,0,0,1-.11-62.07h.11a31,31,0,0,1,.11,62.07Zm0-61.81h-.11a30.78,30.78,0,0,0,.11,61.55h.11a30.78,30.78,0,0,0-.11-61.55Z"/><path class="cls-5" d="M369.29,82.52a31.63,31.63,0,0,1-.11-63.25h.11a31.65,31.65,0,0,1,31.62,31.51h0A31.65,31.65,0,0,1,369.4,82.52Zm0-61.81h-.11a30.19,30.19,0,0,0,.11,60.37h.11a30.22,30.22,0,0,0,30.08-30.29h0A30.22,30.22,0,0,0,369.29,20.71Z"/><path class="cls-5" d="M400.1,51.58a27.71,27.71,0,0,1-5,16.4c-2.45,3.53-12.68,9.82-25.45,10.17-11.84.33-22.74-5.78-25.32-9.22a27.72,27.72,0,0,1-5.63-16.2c-.29-16,13.33-22.89,30.29-23.21S399.8,35.58,400.1,51.58Z"/><path class="cls-5" d="M368.69,78.89c-11.85,0-22.33-6-25-9.53A28.47,28.47,0,0,1,338,52.74c-.14-7.82,2.88-13.91,9-18.09C352.28,31,359.89,29,369,28.8s16.74,1.57,22.21,5c6.26,4,9.5,9.93,9.65,17.75h0a28.38,28.38,0,0,1-5.15,16.82c-2.41,3.47-12.51,10.11-26,10.48Zm1.37-48.66H369c-9,.17-30,2.69-29.58,22.47a27,27,0,0,0,5.48,15.79c2.41,3.2,12.6,9,23.83,9l.9,0c12.83-.35,22.69-6.7,24.88-9.86a26.9,26.9,0,0,0,4.89-16h0C399,32.56,379.56,30.23,370.06,30.23Z"/><path class="cls-5" d="M340.74,39.76a.73.73,0,0,1-.58-1.14c5.26-8,15.67-12.79,28.56-13s23.4,4,29,11.56a.72.72,0,0,1,0,.9.71.71,0,0,1-1,.11l-.08-.06-.06-.08c-5.35-7.22-15.51-11.22-27.86-11s-22.41,4.75-27.4,12.4l-.05.07A.74.74,0,0,1,340.74,39.76Z"/><g class="cls-9"><path class="cls-10" d="M374.29,125l-.08,0h-8.33l-.08,0Z"/></g><path class="cls-12" d="M406.57,94a14.05,14.05,0,0,1-.08,1.58c-.66,6.46-5.27,12.91-11,18.59-9.34,9.2-21.71,16.37-25.15,18.28a1.88,1.88,0,0,1-1.84,0c-4-2.19-20.4-11.48-29.7-23.07-3.9-4.85-6.56-10.1-6.56-15.39a18.8,18.8,0,0,1,.44-4.07c2-9,10.33-15.75,20.33-15.75a21.1,21.1,0,0,1,16.41,7.66,21.12,21.12,0,0,1,16.41-7.66C397.27,74.15,406.57,83,406.57,94Z"/><path class="cls-5" d="M332.32,91.9a20.2,20.2,0,0,0-.11,2.07v0A20.2,20.2,0,0,1,332.32,91.9Z"/><path class="cls-5" d="M332.69,97.93c-.06-.25-.12-.5-.16-.74C332.58,97.43,332.63,97.68,332.69,97.93Z"/><path class="cls-5" d="M333.08,99.34c-.1-.31-.19-.61-.27-.92C332.89,98.72,333,99,333.08,99.34Z"/><path class="cls-5" d="M334.76,103.34a27.45,27.45,0,0,1-1.17-2.54A27.45,27.45,0,0,0,334.76,103.34Z"/><path class="cls-5" d="M337.62,107.87a36.39,36.39,0,0,1-2.48-3.81A36.39,36.39,0,0,0,337.62,107.87Z"/><path class="cls-5" d="M406.57,94c0,.52,0,1-.08,1.58a19.9,19.9,0,0,1-1.76,6.19A19.19,19.19,0,0,0,406.5,94a19.54,19.54,0,0,0-.23-3s0-.11,0-.17A19.13,19.13,0,0,1,406.57,94Z"/><path class="cls-5" d="M369.38,133.39a2.64,2.64,0,0,1-1.25-.32c-6.12-3.32-36.64-20.81-36.64-39.1,0-11.33,9.64-20.54,21.49-20.54a21.77,21.77,0,0,1,16.41,7.27,21.79,21.79,0,0,1,16.41-7.27c11.85,0,21.49,9.21,21.49,20.54,0,17.82-30.51,35.68-36.63,39.08A2.66,2.66,0,0,1,369.38,133.39ZM353,74.87c-11.05,0-20.05,8.57-20.05,19.1,0,17.48,29.89,34.58,35.88,37.83a1.18,1.18,0,0,0,1.15,0A136.73,136.73,0,0,0,390.13,118c10.43-8.79,15.72-16.88,15.72-24,0-10.53-9-19.1-20.05-19.1A20.31,20.31,0,0,0,370,82.27l-.56.68-.55-.68A20.33,20.33,0,0,0,353,74.87Z"/><path class="cls-5" d="M371.64,85.85a.72.72,0,0,1-.62-.34c-1-1.61-2.19-3.25-2.21-3.27a.72.72,0,0,1,.16-1,.71.71,0,0,1,1,.15c0,.07,1.25,1.7,2.28,3.37a.72.72,0,0,1-.24,1A.74.74,0,0,1,371.64,85.85Z"/><path class="cls-4" d="M344.83,75.72S328.31,83,330.75,97.27c2.32,13.59,17.56,10.57,18.15,2.26.56-8-2.8-9-7-10.22-3.1-.87-4.41-3.38-4.11-5.27C338.43,80.19,344.83,75.72,344.83,75.72Z"/><path class="cls-5" d="M404.73,101.74a35.1,35.1,0,0,1-4.78,7.62l-.13,0A35.64,35.64,0,0,0,404.73,101.74Z"/><path class="cls-4" d="M393.89,75.72S410.4,83,408,97.27c-2.32,13.59-17.56,10.57-18.14,2.26-.57-8,2.8-9,7-10.22,3.1-.87,4.41-3.38,4.1-5.27C400.28,80.19,393.89,75.72,393.89,75.72Z"/><path class="cls-5" d="M340.26,107.33c-4.21,0-9-2.59-10.22-9.94-1-6.08,1.15-11.88,6.34-16.77a31.66,31.66,0,0,1,8.16-5.56.72.72,0,0,1,.7,1.24c-.06,0-6.15,4.35-6.72,7.85-.26,1.61.91,3.72,3.59,4.47,4,1.12,8.12,2.28,7.51,11-.3,4.18-4.1,7.51-8.85,7.74ZM338.8,80.41c-.48.4-1,.83-1.46,1.29-4.87,4.6-6.85,9.8-5.88,15.45,1.15,6.72,5.52,8.92,9.24,8.73,3.42-.16,7.2-2.47,7.48-6.4.53-7.51-2.55-8.38-6.46-9.47-3.48-1-5-3.87-4.62-6.09A8.39,8.39,0,0,1,338.8,80.41Z"/><path class="cls-5" d="M398.45,107.33h-.51c-4.74-.23-8.55-3.56-8.84-7.74-.62-8.68,3.51-9.84,7.5-11,2.68-.75,3.85-2.86,3.59-4.47-.57-3.5-6.66-7.8-6.72-7.85a.72.72,0,0,1,.71-1.24,31.89,31.89,0,0,1,8.15,5.56c5.19,4.89,7.38,10.69,6.34,16.77C407.42,104.74,402.66,107.33,398.45,107.33Zm1.46-26.92a8.39,8.39,0,0,1,1.7,3.51C402,86.14,400.47,89,397,90c-3.9,1.09-7,2-6.46,9.47.28,3.93,4.07,6.24,7.49,6.4,3.71.19,8.08-2,9.23-8.73,1-5.65-1-10.85-5.88-15.45C400.89,81.24,400.4,80.81,399.91,80.41Z"/><path class="cls-5" d="M407.54,90.44a.56.56,0,0,1-.48-.29,13.5,13.5,0,0,0-6.4-5.83.53.53,0,0,1-.3-.69.52.52,0,0,1,.69-.31,14.3,14.3,0,0,1,7,6.33.54.54,0,0,1-.48.79Z"/><path class="cls-5" d="M331.14,90.44a.57.57,0,0,1-.25-.06.56.56,0,0,1-.23-.73,14.39,14.39,0,0,1,7-6.33.54.54,0,0,1,.7.31.53.53,0,0,1-.31.69h0a13.55,13.55,0,0,0-6.4,5.83A.55.55,0,0,1,331.14,90.44Z"/><path class="cls-4" d="M183,124.75H122.43a123.79,123.79,0,0,1,1.13-15.41q.31-2.49.77-5.24a129.48,129.48,0,0,1,7.48-27.21q.87-2.16,1.85-4.3c.52-1.13,1.07-2.26,1.64-3.38q.63-1.23,1.29-2.46h32.23c.45.82.88,1.64,1.3,2.46q.87,1.7,1.65,3.42c.75,1.63,1.45,3.28,2.11,4.92a130,130,0,0,1,7.2,26.55c.31,1.84.56,3.6.78,5.25A122.26,122.26,0,0,1,183,124.75Z"/><path class="cls-5" d="M183,124.75H122.43a123.79,123.79,0,0,1,1.13-15.41q.31-2.49.77-5.24c.58-3.47,1.33-7.24,2.3-11.15,3.16,10.13,13.35,17.84,25.83,17.84H153c12.45,0,22.61-7.67,25.81-17.76,1,3.89,1.7,7.62,2.27,11.07.31,1.84.56,3.6.78,5.25A122.26,122.26,0,0,1,183,124.75Z"/><path class="cls-5" d="M183.69,125.47h-62v-.71a129.23,129.23,0,0,1,1.65-19.19C125,95.3,128.43,80.17,136,66.41a.72.72,0,1,1,1.26.69c-13,23.81-14,52.11-14.06,56.93h59.1a136.49,136.49,0,0,0-1.64-18.27c-1.57-10.15-5-25.09-12.43-38.66a.72.72,0,0,1,.29-1,.71.71,0,0,1,1,.29c7.54,13.76,11,28.89,12.6,39.16a132.62,132.62,0,0,1,1.65,19.19Z"/><path class="cls-5" d="M170.9,122.8H134.52a11.69,11.69,0,0,1-11.68-11.68V82a11.69,11.69,0,0,1,11.68-11.67H170.9A11.69,11.69,0,0,1,182.58,82v29.13A11.69,11.69,0,0,1,170.9,122.8Zm-36.38-51A10.24,10.24,0,0,0,124.28,82v29.13a10.25,10.25,0,0,0,10.24,10.24H170.9a10.26,10.26,0,0,0,10.24-10.24V82A10.25,10.25,0,0,0,170.9,71.76Z"/><path class="cls-4" d="M199.24,108.51s-5,23.84-6.62,24.37c-2.33.75-7.93,0-7.93,0s-11.65-1.58-22.09-2.3c-3.06-.21-6-.34-8.54-.34-2.9,0-6.36.17-9.9.44-10.06.75-20.73,2.2-20.73,2.2s-5.6.79-7.93,0c-1.63-.53-6.63-24.37-6.63-24.37,3-4.29,9.84-3.84,13.12,3.75.08-.14.17-.27.26-.4a11.67,11.67,0,0,1,6.78-4.78c5.41-1.41,10.33,1,13.81,3.61.32.24.62.48.91.72l.09.07.66.57a14.87,14.87,0,0,0,3.46,2.27c.18.08.35.16.54.23a14.21,14.21,0,0,0,5.56,1.13,14.53,14.53,0,0,0,9.56-3.63c2.93-2.58,7.47-5.56,12.66-5.38a13.18,13.18,0,0,1,4,.78,11.09,11.09,0,0,1,4.85,3.42,12.38,12.38,0,0,1,1,1.39C189.41,104.67,196.27,104.22,199.24,108.51Z"/><path class="cls-5" d="M118.5,133.92a11.25,11.25,0,0,1-3.22-.36c-.59-.19-1.4-.46-4.4-12.89-1.44-6-2.7-12-2.71-12l-.06-.3.17-.25a6.87,6.87,0,0,1,6.4-3c3,.29,5.65,2.36,7.42,5.72a12,12,0,0,1,5.51-4.06c4.47-1.62,9.16-.89,14,2.16a.72.72,0,0,1-.77,1.22c-4.4-2.8-8.68-3.48-12.7-2a10.84,10.84,0,0,0-5.51,4.52l-.73,1.15-.54-1.25c-1.52-3.54-4-5.73-6.78-6a5.43,5.43,0,0,0-4.89,2.14c2.26,10.74,5.14,22.29,6.17,23.54,1.84.54,6,.12,7.51-.1.2,0,19.68-2.64,30.73-2.64s30.53,2.62,30.72,2.64c1.49.22,5.68.64,7.52.1,1-1.25,3.91-12.8,6.17-23.54a5.43,5.43,0,0,0-4.89-2.14c-2.79.27-5.26,2.46-6.79,6l-.54,1.25-.72-1.15a10.84,10.84,0,0,0-5.51-4.52c-4.06-1.47-8.37-.76-12.81,2.1a.72.72,0,0,1-.78-1.21c4.77-3.07,9.64-3.85,14.08-2.24a12,12,0,0,1,5.51,4.06c1.77-3.36,4.42-5.43,7.42-5.72a6.84,6.84,0,0,1,6.39,3l.18.25-.06.3c0,.06-1.27,6-2.71,12-3,12.43-3.81,12.7-4.4,12.89-2.46.8-8,0-8.26,0s-19.56-2.63-30.52-2.63-30.33,2.6-30.53,2.63A41.2,41.2,0,0,1,118.5,133.92Zm73.76-1.65Z"/><path class="cls-6" d="M191.17,132.88h1.45a4.3,4.3,0,0,0,3.93-2.55c2.17-4.86,6.12-15.52,2.42-22-.11-.19-.22-.37-.34-.55,0,0-3.56-3.23-6.11,1.34C190.14,113.37,185.13,131.63,191.17,132.88Z"/><g class="cls-7"><path class="cls-4" d="M191.21,112.14l.19-.29c3.14-4.57,7.51-1.34,7.51-1.34a5.7,5.7,0,0,1,.42.55,9.73,9.73,0,0,1,1.07,2A12,12,0,0,0,199,108.3c-.11-.19-.22-.37-.34-.55,0,0-3.56-3.23-6.11,1.34A22.14,22.14,0,0,0,191.21,112.14Z"/></g><path class="cls-5" d="M200.38,113.58h-.12l-8.88-1.48a.72.72,0,0,1-.59-.83.71.71,0,0,1,.82-.59l8.89,1.48a.72.72,0,0,1-.12,1.43Z"/><path class="cls-5" d="M200.32,118.38h-.1L189.83,117a.72.72,0,0,1,.2-1.43l10.39,1.4a.72.72,0,0,1-.1,1.43Z"/><path class="cls-5" d="M199.4,123.08h-.08l-10.55-1.29a.72.72,0,0,1-.63-.8.73.73,0,0,1,.8-.63l10.55,1.3a.71.71,0,0,1,.63.8A.73.73,0,0,1,199.4,123.08Z"/><path class="cls-5" d="M197.73,128.2h-.06l-9.43-.85a.72.72,0,0,1,.13-1.43l9.43.85a.72.72,0,0,1-.07,1.43Z"/><g class="cls-2"><path class="cls-5" d="M191.17,132.88h1.45a4.3,4.3,0,0,0,3.93-2.55c.56-1.26,1.25-2.91,1.88-4.77a5.3,5.3,0,0,1-4.57,2.36h-1.73c-2.45-.43-3.38-2.84-3.41-6C187.89,127.25,188.11,132.24,191.17,132.88Z"/></g><path class="cls-5" d="M192.62,133.59H191a3.7,3.7,0,0,1-2.67-2.28c-2.47-5.42,1.58-19.05,3.53-22.56a4.93,4.93,0,0,1,3.39-2.77,5.11,5.11,0,0,1,3.83,1.25l.06.06.05.06c.13.2.26.4.38.61,3.77,6.63.12,17-2.39,22.67A5,5,0,0,1,192.62,133.59Zm-1.37-1.43h1.37A3.6,3.6,0,0,0,195.9,130c1.93-4.32,6-15.06,2.45-21.37-.09-.15-.17-.29-.26-.42a3,3,0,0,0-4.94,1.21c-2.05,3.66-5.58,16.65-3.48,21.25A2.38,2.38,0,0,0,191.25,132.16Z"/><path class="cls-6" d="M117,132.88H115.5a4.3,4.3,0,0,1-3.93-2.55c-2.17-4.86-6.12-15.52-2.42-22,.11-.19.22-.37.34-.55,0,0,3.56-3.23,6.11,1.34C118,113.37,123,131.63,117,132.88Z"/><g class="cls-7"><path class="cls-4" d="M116.91,112.14l-.19-.29c-3.14-4.57-7.51-1.34-7.51-1.34-.15.17-.29.36-.43.55a10.2,10.2,0,0,0-1.06,2,12,12,0,0,1,1.43-4.74c.11-.19.22-.37.34-.55,0,0,3.56-3.23,6.11,1.34A22.14,22.14,0,0,1,116.91,112.14Z"/></g><path class="cls-5" d="M107.74,113.58a.72.72,0,0,1-.12-1.43l8.89-1.48a.71.71,0,0,1,.82.59.72.72,0,0,1-.59.83l-8.88,1.48Z"/><path class="cls-5" d="M107.8,118.38a.72.72,0,0,1-.1-1.43l10.39-1.4a.72.72,0,0,1,.81.62.73.73,0,0,1-.62.81l-10.39,1.39Z"/><path class="cls-5" d="M108.71,123.08a.73.73,0,0,1-.71-.63.71.71,0,0,1,.63-.8l10.54-1.3a.74.74,0,0,1,.81.63.73.73,0,0,1-.63.8l-10.55,1.29Z"/><path class="cls-5" d="M110.39,128.2a.72.72,0,0,1-.07-1.43l9.43-.85a.72.72,0,0,1,.13,1.43l-9.43.85Z"/><g class="cls-2"><path class="cls-5" d="M117,132.88H115.5a4.3,4.3,0,0,1-3.93-2.55c-.56-1.26-1.25-2.91-1.88-4.77a5.3,5.3,0,0,0,4.57,2.36H116c2.45-.43,3.38-2.84,3.41-6C120.23,127.25,120,132.24,117,132.88Z"/></g><path class="cls-5" d="M117,133.59H115.5a5,5,0,0,1-4.59-3c-2.51-5.62-6.16-16-2.39-22.67.12-.21.25-.41.38-.61l0-.06.06-.06a5.11,5.11,0,0,1,3.83-1.25,5,5,0,0,1,3.39,2.77c2,3.51,6,17.14,3.53,22.56a3.72,3.72,0,0,1-2.67,2.28Zm-7-25.35a4.28,4.28,0,0,0-.26.42c-3.58,6.31.52,17,2.45,21.37a3.6,3.6,0,0,0,3.28,2.13h1.37a2.38,2.38,0,0,0,1.58-1.46c2.1-4.6-1.43-17.59-3.48-21.25a3,3,0,0,0-4.94-1.21Z"/><path class="cls-5" d="M133.29,132.19a.57.57,0,0,1-.25-.06.54.54,0,0,1-.23-.73c2.56-4.88,2.6-10.37.11-16.32a30,30,0,0,0-4.57-7.57.55.55,0,0,1,.05-.76.53.53,0,0,1,.76,0,30.55,30.55,0,0,1,4.75,7.84c2.59,6.18,2.54,12.15-.14,17.26A.54.54,0,0,1,133.29,132.19Z"/><path class="cls-5" d="M175.08,132.19a.53.53,0,0,1-.48-.29c-2.68-5.11-2.73-11.08-.14-17.26a31,31,0,0,1,4.74-7.84.54.54,0,1,1,.81.71,30.64,30.64,0,0,0-4.57,7.57c-2.48,6-2.44,11.44.11,16.32a.54.54,0,0,1-.22.73A.57.57,0,0,1,175.08,132.19Z"/><g class="cls-2"><path class="cls-5" d="M154.78,104c.22.34.44.67.64,1Z"/></g><path class="cls-4" d="M142.32,104.22c-3.27,1.33-8.33,1-11.79.63a3.69,3.69,0,0,1-3.21-4.22h0a3.7,3.7,0,0,1,3.83-3.16c3.23.15,8.07.22,11.14-.46"/><g class="cls-2"><path class="cls-5" d="M142.32,104.22c-3.27,1.33-8.33,1-11.78.64a3.72,3.72,0,0,1-3.22-4.23,3.57,3.57,0,0,1,.38-1.17,3.71,3.71,0,0,0,2.84,2c3.44.41,8.49.69,11.77-.63Z"/></g><path class="cls-5" d="M135.82,105.92a46.43,46.43,0,0,1-5.37-.35,4.43,4.43,0,0,1,.74-8.82c3.37.16,8,.21,10.94-.44.42-.09,1.46-.09,2.09,2s.61,5.73-1.63,6.63h0A18.71,18.71,0,0,1,135.82,105.92ZM131,98.18a3,3,0,0,0-.36,6c3.51.42,8.34.67,11.43-.58h0c.88-.36,1.06-1.8,1.09-2.4a5.33,5.33,0,0,0-.77-3.43,50.25,50.25,0,0,1-11.25.46Z"/><path class="cls-4" d="M179.12,104.85a42.83,42.83,0,0,1-5.57.35h-1.12l-.34,0-.42,0h0l-.43,0a2.48,2.48,0,0,1-.27,0l-.24,0-.36,0-.33,0H170l-.38-.07-.38-.07h0l-.21,0-.23-.06h0l-.69-.19-.36-.12-.34-.14v-3.46l0-3.75a21,21,0,0,0,2.65.39,67.32,67.32,0,0,0,8.49.07h.17a3.71,3.71,0,0,1,.44,7.39Z"/><g class="cls-2"><path class="cls-5" d="M179.12,104.85a42.71,42.71,0,0,1-5.57.35h-1.12l-.34,0-.42,0h0l-.43,0a2.48,2.48,0,0,1-.27,0l-.24,0-.36,0-.33,0H170l-.38-.07-.38-.07h0l-.21,0-.23-.06h0l-.69-.19-.35-.12-.35-.14v-3.71l.33.13.35.12.69.19h0l.23.06.21,0h0l.38.07.38.07H170l.33.05.36,0,.24,0,.27,0,.43,0h0l.42,0,.34,0h1.12a42.71,42.71,0,0,0,5.57-.35,3.66,3.66,0,0,0,2.76-1.82,3.71,3.71,0,0,1-2.76,5.54Z"/></g><path class="cls-5" d="M173.84,105.92a18.71,18.71,0,0,1-6.77-1c-2.24-.9-2.3-4.49-1.63-6.63s1.67-2,2.09-2c2.93.65,7.57.6,10.94.44a4.43,4.43,0,0,1,.74,8.82A46.43,46.43,0,0,1,173.84,105.92Zm-6.55-8.19a5.33,5.33,0,0,0-.77,3.43c0,.6.21,2,1.09,2.4h0c3.09,1.25,7.92,1,11.43.58a3,3,0,0,0-.5-6A50.25,50.25,0,0,1,167.29,97.73Z"/><path class="cls-4" d="M168.6,94.63v11.56a3.91,3.91,0,0,1-3.9,3.9H143.41a3.91,3.91,0,0,1-3.89-3.9V94.63a3.9,3.9,0,0,1,3.89-3.9H164.7a3.93,3.93,0,0,1,3.11,1.54A3.87,3.87,0,0,1,168.6,94.63Z"/><g class="cls-2"><path class="cls-5" d="M168.6,94.63v11.56a3.91,3.91,0,0,1-3.9,3.9H143.41a3.91,3.91,0,0,1-3.89-3.9v-4.33c2.28,4.44,10,6.18,16.4,5.54a2.37,2.37,0,0,0,2.1-2.89,5.66,5.66,0,0,1-.15-1.31c0-2.52,1.67-4.57,3.73-4.57s3.63,1.91,3.73,4.32c2.56-3.34,2.69-7.81,2.48-10.67A3.85,3.85,0,0,1,168.6,94.63Z"/></g><path class="cls-5" d="M164.7,110.81H143.41a4.62,4.62,0,0,1-4.61-4.62V94.63A4.62,4.62,0,0,1,143.41,90H164.7a4.62,4.62,0,0,1,4.62,4.62v11.56A4.62,4.62,0,0,1,164.7,110.81ZM143.41,91.45a3.18,3.18,0,0,0-3.18,3.18v11.56a3.19,3.19,0,0,0,3.18,3.18H164.7a3.18,3.18,0,0,0,3.18-3.18V94.63a3.18,3.18,0,0,0-3.18-3.18Z"/><circle class="cls-8" cx="161.6" cy="100.41" r="3.36"/><path class="cls-4" d="M165,100.41a3.08,3.08,0,0,1,0,.53,3.36,3.36,0,0,0-6.64,0,3.08,3.08,0,0,1,0-.53,3.36,3.36,0,0,1,6.72,0Z"/><g class="cls-2"><path class="cls-5" d="M165,100.41a3.36,3.36,0,0,1-6.72,0,3.31,3.31,0,0,1,.23-1.22,3.36,3.36,0,0,0,6.26,0A3.31,3.31,0,0,1,165,100.41Z"/></g><path class="cls-5" d="M161.6,104.31a3.9,3.9,0,1,1,3.9-3.9A3.91,3.91,0,0,1,161.6,104.31Zm0-6.72a2.82,2.82,0,1,0,2.82,2.82A2.82,2.82,0,0,0,161.6,97.59Z"/><path class="cls-5" d="M152.07,110.63a.54.54,0,0,1-.54-.54v-8l-4-3a.55.55,0,0,1-.21-.43V90.73a.54.54,0,0,1,.54-.54.54.54,0,0,1,.54.54v7.64l4,3a.55.55,0,0,1,.21.43v8.25A.54.54,0,0,1,152.07,110.63Z"/><path class="cls-4" d="M183.86,58.34h0a.64.64,0,0,1-.68-.58l-1.35-18.09a.63.63,0,0,1,.58-.67h0a6.59,6.59,0,0,1,7.08,6.09l.46,6.17A6.61,6.61,0,0,1,183.86,58.34Z"/><path class="cls-5" d="M183.81,58.47a.79.79,0,0,1-.76-.7L181.7,39.68a.76.76,0,0,1,.7-.81,6.73,6.73,0,0,1,7.22,6.21l.46,6.17a6.74,6.74,0,0,1-6.21,7.22Zm-.9-19.36h-.49a.51.51,0,0,0-.46.54l1.35,18.09a.51.51,0,0,0,.17.34.49.49,0,0,0,.37.12h0a6.47,6.47,0,0,0,6-6.94l-.46-6.17a6.45,6.45,0,0,0-6.45-6Z"/><path class="cls-5" d="M183.81,59.06a1.37,1.37,0,0,1-.88-.33,1.35,1.35,0,0,1-.47-.92l-1.35-18.09a1.35,1.35,0,0,1,1.25-1.44A7.33,7.33,0,0,1,190.21,45l.46,6.16a7.31,7.31,0,0,1-6.76,7.85h-.1Zm-1.25-19.35,1.33,17.9a5.87,5.87,0,0,0,5.34-6.3l-.46-6.17a5.88,5.88,0,0,0-6.21-5.43Z"/><path class="cls-4" d="M122.72,43.45h0a.63.63,0,0,1,.67.59l1.35,18.08a.63.63,0,0,1-.58.68h0a6.61,6.61,0,0,1-7.08-6.1l-.46-6.17A6.62,6.62,0,0,1,122.72,43.45Z"/><path class="cls-5" d="M123.66,62.94A6.75,6.75,0,0,1,117,56.71l-.46-6.17a6.74,6.74,0,0,1,6.22-7.21.76.76,0,0,1,.81.7l1.35,18.08a.74.74,0,0,1-.18.55.71.71,0,0,1-.52.26A4.35,4.35,0,0,1,123.66,62.94Zm-.93-19.36a6.48,6.48,0,0,0-6,6.94l.46,6.17a6.49,6.49,0,0,0,6.94,6,.46.46,0,0,0,.34-.18.48.48,0,0,0,.12-.36l-1.35-18.08a.5.5,0,0,0-.53-.47Z"/><path class="cls-5" d="M123.66,63.53a7.33,7.33,0,0,1-7.3-6.78l-.46-6.16a7.34,7.34,0,0,1,6.76-7.85h0A1.35,1.35,0,0,1,124.11,44l1.35,18.09a1.33,1.33,0,0,1-1.25,1.44A5,5,0,0,1,123.66,63.53Zm-1-19.35a5.89,5.89,0,0,0-5.34,6.3l.46,6.17A5.89,5.89,0,0,0,124,62.08Z"/><circle class="cls-4" cx="153.29" cy="50.9" r="30.91"/><path class="cls-5" d="M153.29,81.93a31,31,0,0,1-.11-62.07h.11a31,31,0,0,1,.11,62.07Zm0-61.81h-.11a30.78,30.78,0,0,0,.11,61.55h.11a30.78,30.78,0,0,0-.11-61.55Z"/><path class="cls-5" d="M153.29,82.52a31.63,31.63,0,0,1-.11-63.25h.11a31.65,31.65,0,0,1,31.62,31.51h0A31.65,31.65,0,0,1,153.4,82.52Zm0-61.81h-.11a30.19,30.19,0,0,0,.11,60.37h.11a30.22,30.22,0,0,0,30.08-30.29h0A30.22,30.22,0,0,0,153.29,20.71Z"/><path class="cls-5" d="M184.1,51.58a27.71,27.71,0,0,1-5,16.4c-2.45,3.53-12.68,9.82-25.45,10.17-11.84.33-22.74-5.78-25.32-9.22a27.72,27.72,0,0,1-5.63-16.2c-.29-16,13.33-22.89,30.29-23.21S183.8,35.58,184.1,51.58Z"/><path class="cls-5" d="M152.69,78.89c-11.85,0-22.33-6-25-9.53A28.47,28.47,0,0,1,122,52.74c-.14-7.82,2.88-13.91,9-18.09C136.28,31,143.89,29,153,28.8s16.74,1.57,22.21,5c6.26,4,9.5,9.93,9.65,17.75h0a28.38,28.38,0,0,1-5.15,16.82c-2.41,3.47-12.51,10.11-26,10.48Zm1.37-48.66H153c-9,.17-29.95,2.69-29.58,22.47a27,27,0,0,0,5.48,15.79c2.41,3.2,12.6,9,23.83,9l.9,0c12.83-.35,22.69-6.7,24.88-9.86a26.9,26.9,0,0,0,4.89-16h0C183,32.56,163.56,30.23,154.06,30.23Z"/><path class="cls-5" d="M124.74,39.76a.73.73,0,0,1-.58-1.14c5.26-8,15.67-12.79,28.56-13s23.4,4,29,11.56a.72.72,0,0,1,0,.9.71.71,0,0,1-1,.11l-.08-.06-.06-.08c-5.35-7.22-15.51-11.22-27.86-11s-22.41,4.75-27.4,12.4l0,.07A.74.74,0,0,1,124.74,39.76Z"/><g class="cls-9"><path class="cls-10" d="M158.29,125l-.08,0h-8.33l-.08,0Z"/></g><path class="cls-13" d="M190.57,94a14.05,14.05,0,0,1-.08,1.58c-.66,6.46-5.27,12.91-11,18.59-9.34,9.2-21.71,16.37-25.15,18.28a1.88,1.88,0,0,1-1.84,0c-4-2.19-20.4-11.48-29.7-23.07-3.9-4.85-6.56-10.1-6.56-15.39a18.8,18.8,0,0,1,.44-4.07c2-9,10.33-15.75,20.33-15.75a21.1,21.1,0,0,1,16.41,7.66,21.12,21.12,0,0,1,16.41-7.66C181.27,74.15,190.57,83,190.57,94Z"/><path class="cls-5" d="M116.32,91.9a20.2,20.2,0,0,0-.11,2.07v0A20.2,20.2,0,0,1,116.32,91.9Z"/><path class="cls-5" d="M116.69,97.93c-.06-.25-.12-.5-.16-.74C116.58,97.43,116.63,97.68,116.69,97.93Z"/><path class="cls-5" d="M117.08,99.34c-.1-.31-.19-.61-.27-.92C116.89,98.72,117,99,117.08,99.34Z"/><path class="cls-5" d="M118.76,103.34a27.45,27.45,0,0,1-1.17-2.54A27.45,27.45,0,0,0,118.76,103.34Z"/><path class="cls-5" d="M121.62,107.87a36.39,36.39,0,0,1-2.48-3.81A36.39,36.39,0,0,0,121.62,107.87Z"/><path class="cls-5" d="M190.57,94c0,.52,0,1-.08,1.58a19.9,19.9,0,0,1-1.76,6.19A19.19,19.19,0,0,0,190.5,94a19.54,19.54,0,0,0-.23-3s0-.11,0-.17A19.13,19.13,0,0,1,190.57,94Z"/><path class="cls-5" d="M153.38,133.39a2.64,2.64,0,0,1-1.25-.32c-6.12-3.32-36.64-20.81-36.64-39.1,0-11.33,9.64-20.54,21.49-20.54a21.77,21.77,0,0,1,16.41,7.27,21.79,21.79,0,0,1,16.41-7.27c11.85,0,21.49,9.21,21.49,20.54,0,17.82-30.51,35.68-36.63,39.08A2.66,2.66,0,0,1,153.38,133.39ZM137,74.87c-11,0-20,8.57-20,19.1,0,17.48,29.89,34.58,35.88,37.83a1.18,1.18,0,0,0,1.15,0A136.73,136.73,0,0,0,174.13,118c10.43-8.79,15.72-16.88,15.72-24,0-10.53-9-19.1-20-19.1A20.31,20.31,0,0,0,154,82.27l-.56.68-.55-.68A20.33,20.33,0,0,0,137,74.87Z"/><path class="cls-5" d="M155.64,85.85a.72.72,0,0,1-.62-.34c-1-1.61-2.19-3.25-2.21-3.27a.72.72,0,0,1,.16-1,.71.71,0,0,1,1,.15c.05.07,1.25,1.7,2.28,3.37a.72.72,0,0,1-.24,1A.74.74,0,0,1,155.64,85.85Z"/><path class="cls-4" d="M128.83,75.72S112.31,83,114.75,97.27c2.32,13.59,17.56,10.57,18.15,2.26.56-8-2.8-9-7-10.22-3.1-.87-4.41-3.38-4.11-5.27C122.43,80.19,128.83,75.72,128.83,75.72Z"/><path class="cls-5" d="M188.73,101.74a35.1,35.1,0,0,1-4.78,7.62l-.13,0A35.64,35.64,0,0,0,188.73,101.74Z"/><path class="cls-4" d="M177.89,75.72S194.4,83,192,97.27c-2.32,13.59-17.56,10.57-18.14,2.26-.57-8,2.8-9,7-10.22,3.1-.87,4.41-3.38,4.1-5.27C184.28,80.19,177.89,75.72,177.89,75.72Z"/><path class="cls-5" d="M124.26,107.33c-4.21,0-9-2.59-10.22-9.94-1-6.08,1.15-11.88,6.34-16.77a31.66,31.66,0,0,1,8.16-5.56.72.72,0,0,1,.7,1.24c-.06,0-6.15,4.35-6.72,7.85-.26,1.61.91,3.72,3.59,4.47,4,1.12,8.12,2.28,7.51,11-.3,4.18-4.1,7.51-8.85,7.74ZM122.8,80.41c-.48.4-1,.83-1.46,1.29-4.87,4.6-6.85,9.8-5.88,15.45,1.15,6.72,5.52,8.92,9.24,8.73,3.42-.16,7.2-2.47,7.48-6.4.53-7.51-2.55-8.38-6.46-9.47-3.48-1-5-3.87-4.62-6.09A8.39,8.39,0,0,1,122.8,80.41Z"/><path class="cls-5" d="M182.45,107.33h-.51c-4.74-.23-8.55-3.56-8.84-7.74-.62-8.68,3.51-9.84,7.5-11,2.68-.75,3.85-2.86,3.59-4.47-.57-3.5-6.66-7.8-6.72-7.85a.72.72,0,0,1,.71-1.24,31.89,31.89,0,0,1,8.15,5.56c5.19,4.89,7.38,10.69,6.34,16.77C191.42,104.74,186.66,107.33,182.45,107.33Zm1.46-26.92a8.39,8.39,0,0,1,1.7,3.51C186,86.14,184.47,89,181,90c-3.9,1.09-7,2-6.46,9.47.28,3.93,4.07,6.24,7.49,6.4,3.71.19,8.08-2,9.23-8.73,1-5.65-1-10.85-5.88-15.45C184.89,81.24,184.4,80.81,183.91,80.41Z"/><path class="cls-5" d="M191.54,90.44a.56.56,0,0,1-.48-.29,13.5,13.5,0,0,0-6.4-5.83.53.53,0,0,1-.3-.69.52.52,0,0,1,.69-.31,14.3,14.3,0,0,1,7,6.33.54.54,0,0,1-.48.79Z"/><path class="cls-5" d="M115.14,90.44a.57.57,0,0,1-.25-.06.56.56,0,0,1-.23-.73,14.39,14.39,0,0,1,7-6.33.54.54,0,0,1,.7.31.53.53,0,0,1-.31.69h0a13.55,13.55,0,0,0-6.4,5.83A.55.55,0,0,1,115.14,90.44Z"/></svg>