<svg xmlns="http://www.w3.org/2000/svg" viewBox="0 0 488.26 409.85"><defs><style>.cls-1,.cls-2{fill:#fff;}.cls-2,.cls-5{font-size:118.02px;font-family:Kathen;}.cls-2{stroke:#fff;stroke-miterlimit:10;stroke-width:13px;}.cls-3{letter-spacing:0.01em;}.cls-4{letter-spacing:0.02em;}.cls-5{fill:#29ccb4;}.cls-6{fill:#a643ed;}</style></defs><g id="OBJECTS"><path class="cls-1" d="M349.9,193.83,252.68,25.45c-4.71-8.15-12.4-8.15-17.1,0L138.35,193.83c-4.7,8.15-.85,14.82,8.56,14.82l5.64-.05c50.36,0,86.28-9.3,86.28-66.81h10.43c0,57.51,35.91,66.81,86.27,66.81l5.82.05C350.75,208.65,354.6,202,349.9,193.83Zm-165.77-27.7L183,168.25l-1.15-2.12L179.7,165l2.12-1.16L183,161.7l1.16,2.12,2.12,1.16ZM190.3,149l-4.38-1.29-4.4,1.28,1.28-4.39-1.28-4.4,4.39,1.29,4.39-1.29-1.28,4.4ZM201,126.13l-2.32-.68-2.31.68.68-2.31-.68-2.32,2.32.68,2.32-.68-.69,2.32ZM206.87,100l-1.43-2.61-2.61-1.43,2.61-1.43,1.43-2.62,1.43,2.62,2.61,1.43-2.61,1.43ZM217.49,149l-1.16,2.12L215.17,149l-2.11-1.15,2.11-1.16,1.16-2.12,1.16,2.12,2.11,1.16Zm55.59,0-1.16,2.12L270.77,149l-2.12-1.15,2.12-1.16,1.15-2.12,1.16,2.12,2.12,1.16Zm-16.72-18.25c-1.11,2-3.66,5.76-3.79,5.88a3.25,3.25,0,0,1-2.32,1H237.66a3.32,3.32,0,0,1-2.68-1.4c-1.16-1.64-2.3-3.48-3.43-5.44-3.71.95-14.53,1.92-14.53,1.92s1.09-16.49,6.53-22.64a44.52,44.52,0,0,1-.29-18.13c2.36-11.18,10-19.58,18.38-27.92a3.29,3.29,0,0,1,4.64,0c8,8,16,16.76,18.37,27.93a44.57,44.57,0,0,1-.28,18.14c5.44,6.13,6.53,22.62,6.53,22.62S260.08,131.73,256.36,130.77Zm26.45-33.41L281.39,100,280,97.36l-2.61-1.43L280,94.5l1.44-2.62,1.42,2.62,2.62,1.43Zm9.08,28.77-2.31-.68-2.32.68.67-2.31-.67-2.32,2.32.68,2.31-.68-.67,2.32Zm6.05,14.06,4.4,1.29,4.4-1.29-1.29,4.4,1.29,4.39-4.4-1.28-4.4,1.29,1.29-4.4Zm8.5,25.94-1.16,2.12-1.16-2.12L302,165l2.12-1.16,1.16-2.12,1.16,2.12,2.12,1.16Z"/><path class="cls-1" d="M251.12,95.92a7,7,0,1,0-7,7A7,7,0,0,0,251.12,95.92Z"/><text class="cls-2" transform="translate(18.43 254.1)"><tspan class="cls-3">G</tspan><tspan x="77.62" y="0">alaxia</tspan><tspan class="cls-4" x="9.05" y="109.91">A</tspan><tspan x="87.65" y="109.91">legría</tspan></text><text class="cls-5" transform="translate(18.43 254.1)"><tspan class="cls-3">G</tspan><tspan x="77.62" y="0">alaxia</tspan><tspan class="cls-6"><tspan class="cls-4" x="9.05" y="109.91">A</tspan><tspan x="87.65" y="109.91">legría</tspan></tspan></text></g></svg>