<svg xmlns="http://www.w3.org/2000/svg" viewBox="0 0 488.26 409.85"><defs><style>.cls-1,.cls-2{fill:#fff;}.cls-2{stroke:#fff;stroke-miterlimit:10;stroke-width:13px;}.cls-3{fill:#29ccb4;}.cls-4{fill:#a643ed;}</style></defs><g id="OBJECTS"><path class="cls-1" d="M349.9,193.83,252.68,25.45c-4.71-8.15-12.4-8.15-17.1,0L138.35,193.83c-4.7,8.15-.85,14.82,8.56,14.82l5.64-.05c50.36,0,86.28-9.3,86.28-66.81h10.43c0,57.51,35.91,66.81,86.27,66.81l5.82.05C350.75,208.65,354.6,202,349.9,193.83Zm-165.77-27.7L183,168.25l-1.15-2.12L179.7,165l2.12-1.16L183,161.7l1.16,2.12,2.12,1.16ZM190.3,149l-4.38-1.29-4.4,1.28,1.28-4.39-1.28-4.4,4.39,1.29,4.39-1.29-1.28,4.4ZM201,126.13l-2.32-.68-2.31.68.68-2.31-.68-2.32,2.32.68,2.32-.68-.69,2.32ZM206.87,100l-1.43-2.61-2.61-1.43,2.61-1.43,1.43-2.62,1.43,2.62,2.61,1.43-2.61,1.43ZM217.49,149l-1.16,2.12L215.17,149l-2.11-1.15,2.11-1.16,1.16-2.12,1.16,2.12,2.11,1.16Zm55.59,0-1.16,2.12L270.77,149l-2.12-1.15,2.12-1.16,1.15-2.12,1.16,2.12,2.12,1.16Zm-16.72-18.25c-1.11,2-3.66,5.76-3.79,5.88a3.25,3.25,0,0,1-2.32,1H237.66a3.32,3.32,0,0,1-2.68-1.4c-1.16-1.64-2.3-3.48-3.43-5.44-3.71.95-14.53,1.92-14.53,1.92s1.09-16.49,6.53-22.64a44.52,44.52,0,0,1-.29-18.13c2.36-11.18,10-19.58,18.38-27.92a3.29,3.29,0,0,1,4.64,0c8,8,16,16.76,18.37,27.93a44.57,44.57,0,0,1-.28,18.14c5.44,6.13,6.53,22.62,6.53,22.62S260.08,131.73,256.36,130.77Zm26.45-33.41L281.39,100,280,97.36l-2.61-1.43L280,94.5l1.44-2.62,1.42,2.62,2.62,1.43Zm9.08,28.77-2.31-.68-2.32.68.67-2.31-.67-2.32,2.32.68,2.31-.68-.67,2.32Zm6.05,14.06,4.4,1.29,4.4-1.29-1.29,4.4,1.29,4.39-4.4-1.28-4.4,1.29,1.29-4.4Zm8.5,25.94-1.16,2.12-1.16-2.12L302,165l2.12-1.16,1.16-2.12,1.16,2.12,2.12,1.16Z"/><path class="cls-1" d="M251.12,95.92a7,7,0,1,0-7,7A7,7,0,0,0,251.12,95.92Z"/><path class="cls-2" d="M54.33,256.11A35.3,35.3,0,0,1,40,253.52Q22,245.63,22,217.1a68.66,68.66,0,0,1,2.59-19.71,48,48,0,0,1,13.77-22.47q10.78-9.73,26.4-9.74a29.17,29.17,0,0,1,10.37,1.67A21.61,21.61,0,0,1,87,177.34a24.72,24.72,0,0,1,2.77,11.24,17.89,17.89,0,0,1-1.85,8.52q-1.44,2.66-3.4,2.66-2.94,0-3.74-3.58-2.08-8.81-5.33-12.88a10.08,10.08,0,0,0-8.16-4.06q-6.16,0-11.61,8.93t-6.94,23.75c-.16,1.61-.23,3.43-.23,5.47q0,10.26,2.3,16.77c1.84,5.26,4.73,7.89,8.64,7.89s7.11-2.17,9.34-6.51a36.57,36.57,0,0,0,3.46-13.77l-5.07.06a10.09,10.09,0,0,1-4.58-.87c-1.14-.57-1.7-1.73-1.7-3.45a4,4,0,0,1,1.75-3.64,13,13,0,0,1,4.87-1.67,78.1,78.1,0,0,1,12-1.26c3,0,5.11.68,6.34,2a9,9,0,0,1,2.07,5.56c.08.89.12,1.83.12,2.83q0,17.81-12.57,27.89Q66.9,256.12,54.33,256.11Z"/><path class="cls-2" d="M145.73,256.86a10.35,10.35,0,0,1-6.83-2.27,15.58,15.58,0,0,1-4.35-6.17,36.18,36.18,0,0,1-2.31-8.79q-6.39,14.88-18.84,14.87-10.73,0-15.1-8.47-3.39-6.69-3.4-16.54c0-1.77.08-3.55.23-5.36q1.28-14.46,7.9-24.26Q110.46,189,122.79,189a17.32,17.32,0,0,1,6.26,1,15.79,15.79,0,0,1,4.55,2.62,13.54,13.54,0,0,1,2.91,3.31,11.27,11.27,0,0,1,3.37-4.67q2.22-1.78,6.6-1.78,5.76,0,7.55,3,2.88,5.07,2.88,19.3a107.2,107.2,0,0,1-4.32,30.83q5.29-4.55,11.38-14.2a115.53,115.53,0,0,0,8.79-16.17,31.77,31.77,0,0,1,2-4.38,5.56,5.56,0,0,1,1.44-1.76,2.26,2.26,0,0,1,1.18-.37c.77,0,1.16.56,1.16,1.67a21.33,21.33,0,0,1-1.16,5.71,155.09,155.09,0,0,1-6.28,16.59,80.37,80.37,0,0,1-10.77,18.38Q153.27,256.86,145.73,256.86Zm-26.85-14.4q4.2,0,9-12.45a104.47,104.47,0,0,0,6.28-26,7.52,7.52,0,0,0-6.11-3.28q-5.82,0-9.4,7a47.16,47.16,0,0,0-4.49,15.09,58.07,58.07,0,0,0-.58,7.73Q113.57,242.46,118.88,242.46Z"/><path class="cls-2" d="M185,256.86q-8.07,0-11.64-10.77-2.82-8.47-2.82-22.36v-5.07a208.44,208.44,0,0,1,2-23.86q2.29-17.3,5.18-23.74,2.53-5.76,10.14-5.76,7.16,0,8.82,5.7,1.5,5.19,1.5,16.42,0,10.5-1,22.77-1.84,20.75-5.36,32.44,5.31-4.55,11.41-14.2A114.13,114.13,0,0,0,212,212.26a32.78,32.78,0,0,1,2.05-4.38,5.3,5.3,0,0,1,1.44-1.76,2.2,2.2,0,0,1,1.18-.37c.77,0,1.15.56,1.15,1.67a20.31,20.31,0,0,1-1.21,5.71q-7.44,23.16-17,35Q192.52,256.86,185,256.86Z"/><path class="cls-2" d="M259.43,256.86a10.35,10.35,0,0,1-6.83-2.27,15.48,15.48,0,0,1-4.35-6.17,35.73,35.73,0,0,1-2.31-8.79q-6.39,14.88-18.84,14.87-10.72,0-15.1-8.47-3.41-6.69-3.4-16.54c0-1.77.08-3.55.23-5.36q1.28-14.46,7.89-24.26Q224.16,189,236.49,189a17.27,17.27,0,0,1,6.25,1,15.72,15.72,0,0,1,4.56,2.62,14,14,0,0,1,2.91,3.31,11.18,11.18,0,0,1,3.37-4.67q2.22-1.78,6.6-1.78,5.76,0,7.54,3,2.89,5.07,2.89,19.3a106.85,106.85,0,0,1-4.33,30.83q5.31-4.55,11.39-14.2a114.27,114.27,0,0,0,8.78-16.17,32.78,32.78,0,0,1,2.05-4.38,5.56,5.56,0,0,1,1.44-1.76,2.23,2.23,0,0,1,1.18-.37c.77,0,1.15.56,1.15,1.67a21.23,21.23,0,0,1-1.15,5.71,155.09,155.09,0,0,1-6.28,16.59,80.37,80.37,0,0,1-10.78,18.38Q267,256.86,259.43,256.86Zm-26.86-14.4q4.22,0,9-12.45a104,104,0,0,0,6.28-26,7.5,7.5,0,0,0-6.1-3.28q-5.84,0-9.4,7a47.16,47.16,0,0,0-4.49,15.09,56.44,56.44,0,0,0-.58,7.73Q227.27,242.46,232.57,242.46Z"/><path class="cls-2" d="M280.86,257.33a4.06,4.06,0,0,1-2.73-1A2.94,2.94,0,0,1,277,254q0-2.47,5.13-8.41,4.56-5.25,9.57-10.43,3.51-3.63,5.64-6a115.21,115.21,0,0,1-10.2-17.81,36.81,36.81,0,0,1-3.39-15.21c0-.85,0-1.68.05-2.48a7.22,7.22,0,0,1,2.42-5.22,7.79,7.79,0,0,1,5-1.64q6.39,0,12,6.05a73.81,73.81,0,0,1,8.76,12.1q1.5,2.53,2.88,4.61a69.81,69.81,0,0,0,6.86-9.91A66.23,66.23,0,0,1,326,193q4-5.37,10-5.36,5.53,0,5.53,4.15,0,3.85-3.68,10.25a105.35,105.35,0,0,1-14.7,19.54c1.12,1.54,2.4,3.51,3.86,5.93q5.25,8.72,5.25,14.87a33,33,0,0,0,7.23-8.44,139.37,139.37,0,0,0,7-12.07q3.17-6.17,4.55-9.57a32.78,32.78,0,0,1,2.05-4.38,5.18,5.18,0,0,1,1.47-1.76,2.35,2.35,0,0,1,1.21-.37c.73,0,1.09.52,1.09,1.56q0,3.27-4.26,14.52a117.07,117.07,0,0,1-10.43,21.38q-7.2,11.23-14.12,11.23a19.85,19.85,0,0,1-12.5-4.55,52.92,52.92,0,0,1-8.53-8.64c-.58-.73-1.14-1.4-1.68-2Q286.23,257.32,280.86,257.33Z"/><path class="cls-2" d="M362.52,256.86q-7.89,0-11.18-9-2.54-6.8-2.53-17.86a102.36,102.36,0,0,1,.86-12.85q2.31-18.43,6.74-24.61,2.25-3,8.24-3.05,5.66,0,7.44,2.94,2.7,4.55,2.71,16.88a110.13,110.13,0,0,1-5.42,33.31q5.3-4.55,11.38-14.2a115.53,115.53,0,0,0,8.79-16.17,33,33,0,0,1,2-4.38,5.56,5.56,0,0,1,1.44-1.76,2.26,2.26,0,0,1,1.19-.37c.76,0,1.15.56,1.15,1.67a20.68,20.68,0,0,1-1.21,5.71q-7.44,23.16-17,35Q370.07,256.86,362.52,256.86Zm2.65-71.8a11.29,11.29,0,0,1-4.38-.92,6.86,6.86,0,0,1-4.72-6.86,9.4,9.4,0,0,1,3.8-7.95,11.82,11.82,0,0,1,7.15-2.42,12.16,12.16,0,0,1,4.32.86q4.79,1.9,4.78,7.32a9.37,9.37,0,0,1-2,6Q371.05,185.07,365.17,185.06Z"/><path class="cls-2" d="M437,256.86a10.34,10.34,0,0,1-6.82-2.27,15.6,15.6,0,0,1-4.36-6.17,36.18,36.18,0,0,1-2.3-8.79q-6.39,14.88-18.84,14.87-10.72,0-15.1-8.47-3.41-6.69-3.4-16.54c0-1.77.07-3.55.23-5.36q1.26-14.46,7.89-24.26Q401.71,189,414,189a17.27,17.27,0,0,1,6.25,1,15.53,15.53,0,0,1,4.55,2.62,13.54,13.54,0,0,1,2.91,3.31,11.29,11.29,0,0,1,3.38-4.67q2.21-1.78,6.59-1.78,5.76,0,7.55,3,2.88,5.07,2.88,19.3a107.2,107.2,0,0,1-4.32,30.83q5.31-4.55,11.38-14.2A113.46,113.46,0,0,0,464,212.26a32.78,32.78,0,0,1,2.05-4.38,5.3,5.3,0,0,1,1.44-1.76,2.2,2.2,0,0,1,1.18-.37c.77,0,1.15.56,1.15,1.67a21.23,21.23,0,0,1-1.15,5.71,157.26,157.26,0,0,1-6.28,16.59,80.74,80.74,0,0,1-10.78,18.38Q444.53,256.86,437,256.86Zm-26.85-14.4q4.2,0,9-12.45a104,104,0,0,0,6.28-26,7.52,7.52,0,0,0-6.11-3.28q-5.82,0-9.39,7a47.41,47.41,0,0,0-4.5,15.09,58,58,0,0,0-.57,7.73Q404.82,242.46,410.12,242.46Z"/><path class="cls-2" d="M37.28,366a8.44,8.44,0,0,1-4.93-1.15,5.41,5.41,0,0,1-2.1-3.09,16.52,16.52,0,0,1-.52-4.35,116.49,116.49,0,0,1,1.49-17.51q2.78-18,6.46-29.22,4.6-14.4,11.87-24.09,8.7-11.52,19.59-11.52a15.57,15.57,0,0,1,8.94,2.65q7.36,5.07,12,17.63a107.61,107.61,0,0,1,5.53,24.84,133.24,133.24,0,0,1,.81,14.17q0,4-.23,7.15-1,12.68-3.63,18.09-3,6.17-10.2,6.17a12.82,12.82,0,0,1-6.6-1.44,8,8,0,0,1-3.4-4,17.89,17.89,0,0,1-1.12-6q-.24-10-.87-18.84c-1.26.23-3,.46-5.07.69a77.86,77.86,0,0,1-7.78.4,54.58,54.58,0,0,1-8.64-.63q-2,11.76-3.06,21.78C45.23,363.25,42.38,366,37.28,366ZM50.76,326.6a53.21,53.21,0,0,1,7.66-.57l3.64-.06a55.9,55.9,0,0,1,7.54.46q-1.44-14-3.28-23c-1.23-6-2.31-9.68-3.23-11.07Q56,302.29,50.76,326.6Z"/><path class="cls-2" d="M120.55,366.77q-8.07,0-11.64-10.78-2.84-8.46-2.83-22.36v-5.07a208.29,208.29,0,0,1,2-23.85q2.31-17.29,5.19-23.75,2.53-5.76,10.14-5.76,7.14,0,8.82,5.71,1.49,5.18,1.49,16.42,0,10.49-1,22.76-1.85,20.75-5.36,32.45,5.29-4.56,11.41-14.21a112.34,112.34,0,0,0,8.81-16.16,32.78,32.78,0,0,1,2.05-4.38,5.44,5.44,0,0,1,1.44-1.76,2.25,2.25,0,0,1,1.18-.38c.77,0,1.15.56,1.15,1.68a20.32,20.32,0,0,1-1.21,5.7q-7.43,23.16-17,35Q128.1,366.77,120.55,366.77Z"/><path class="cls-2" d="M170.28,366.65q-13.89,0-20-8t-6.11-20.43q0-18.45,9.48-30a30.3,30.3,0,0,1,24.52-11.52q9.79,0,14.38,4.81a16.34,16.34,0,0,1,4.58,11.72q0,10.09-6.68,16.28t-13.66,6.2a9,9,0,0,1-7.72-3.75c-.12,1.27-.17,2.6-.17,4a37.22,37.22,0,0,0,1.15,9.51q2.13,8.24,8.7,8.24a12.87,12.87,0,0,0,7-2.25,34.19,34.19,0,0,0,6.8-5.85,68.42,68.42,0,0,0,6.14-7.81,87.62,87.62,0,0,0,5-8.3c1.44-2.72,2.61-5.16,3.49-7.31a32.78,32.78,0,0,1,2.05-4.38,5.19,5.19,0,0,1,1.44-1.76,2.22,2.22,0,0,1,1.18-.38c.77,0,1.15.56,1.15,1.68a20.32,20.32,0,0,1-1.21,5.7q-9.74,30.44-25,39.24A32.4,32.4,0,0,1,170.28,366.65ZM175.7,328q4.32,0,7.34-4.72a18.36,18.36,0,0,0,3-10.09q0-5.24-3.23-5.24a8.78,8.78,0,0,0-6.08,2.25,17.09,17.09,0,0,0-4.12,5.93,39.66,39.66,0,0,0-2.48,8C171.32,326.76,173.16,328,175.7,328Z"/><path class="cls-2" d="M228.83,390.51q-6.17,0-9.86-2.65a7.67,7.67,0,0,1-3.17-6.68q0-10.79,11.93-18.85,4.44-3,12.16-7.32.69-4.26,1.5-10.95-5.76,12-17.69,12-10,0-14.81-8.12a30.05,30.05,0,0,1-4-15.74q0-.51.06-2.91a26.24,26.24,0,0,1,1-6,39.36,39.36,0,0,1,9-17,22.63,22.63,0,0,1,17.23-7.37,19.92,19.92,0,0,1,6.54,1,16.91,16.91,0,0,1,4.67,2.43,14.08,14.08,0,0,1,2.91,2.93q2.19-10.08,11.75-10.08,4.56,0,6.6,1.81a8.9,8.9,0,0,1,2.74,4.7q1.44,6.41,1.44,19.82,0,7.9-.75,16.08,9.57-7.32,12.91-15.38a30.05,30.05,0,0,1,2.07-4.38c.85-1.42,1.71-2.14,2.59-2.14s1.1.5,1.1,1.5c0,2.54-.87,5.67-2.59,9.4q-4.79,10.31-17.18,19.59-3.33,18.5-12.67,30.71Q243.86,390.52,228.83,390.51Zm.34-46.39a6.61,6.61,0,0,0,4.84-2.48,27,27,0,0,0,4.24-6.31,63.11,63.11,0,0,0,3.37-8q1.44-4.21,2.33-7.81a37.74,37.74,0,0,0,1.07-5.62,7.77,7.77,0,0,0-7.49-4.78q-5.82,0-9.51,6.45a37.28,37.28,0,0,0-4,12.27,40.5,40.5,0,0,0-.51,5.88Q223.53,344.13,229.17,344.12Zm-2.88,37.46a6.78,6.78,0,0,0,5.07-2.33,21,21,0,0,0,3.81-6.11,54.49,54.49,0,0,0,2.7-8.21Q225,373.45,225,380.14C225,381.1,225.45,381.58,226.29,381.58Z"/><path class="cls-2" d="M288.53,365.67q-6.11,0-7.95-4.32t-1.85-15.9q0-6.51.69-16,1.74-23.22,7-29.85,2.78-3.46,8.71-3.46,4.6,0,7.08,2.42a9.08,9.08,0,0,1,2.65,5.24,43.69,43.69,0,0,1,.47,7,34.31,34.31,0,0,1,8.15-10.25,14.75,14.75,0,0,1,9.42-3.75c2.84,0,5,.73,6.51,2.19q3.69,3.69,3.69,11.35a45.27,45.27,0,0,1-1.09,9.4q-1.62,7.77-3,9.56a10.35,10.35,0,0,0,5.16-1.73,20.1,20.1,0,0,0,5-4.15,23.7,23.7,0,0,0,3.31-4.78,12.93,12.93,0,0,1,1.24-2,2.72,2.72,0,0,1,1-.83,2.33,2.33,0,0,1,.9-.18c.69,0,1,.47,1,1.39q0,4.72-3.63,9.79a28.56,28.56,0,0,1-8.35,7.67,18.93,18.93,0,0,1-9.91,3.17,7.48,7.48,0,0,1-5.31-1.9c-2.61-2.39-3.91-6.53-3.91-12.45a36,36,0,0,1,2.59-13.66c-1.69,0-3.29,1-4.78,3q-4.1,5.41-7.61,17.63a138.08,138.08,0,0,0-3.86,17.4q-1.56,10.6-4.15,13.95Q294.58,365.67,288.53,365.67Z"/><path class="cls-2" d="M353.47,366.77q-7.89,0-11.18-9-2.54-6.79-2.53-17.86a104.44,104.44,0,0,1,.86-12.86q2.31-18.44,6.75-24.6,2.24-3.06,8.24-3.06,5.64,0,7.43,2.94,2.71,4.56,2.71,16.89a110.18,110.18,0,0,1-5.42,33.31q5.31-4.56,11.38-14.21a113.92,113.92,0,0,0,8.79-16.16,32.78,32.78,0,0,1,2.05-4.38A5.19,5.19,0,0,1,384,316a2.22,2.22,0,0,1,1.18-.38c.77,0,1.15.56,1.15,1.68a20.32,20.32,0,0,1-1.21,5.7q-7.42,23.16-17,35Q361,366.77,353.47,366.77Zm-.34-70.94a1.73,1.73,0,0,1-1.38-.58,2.12,2.12,0,0,1-.52-1.49q0-2.25,2.94-7.49,5.11-9.16,9.22-10.49a15.31,15.31,0,0,1,4.66-.64c3.08,0,4.61,1,4.61,3.12s-1.38,4.6-4.15,7.6a46.74,46.74,0,0,1-8.24,6.95Q355.73,295.83,353.13,295.83Z"/><path class="cls-2" d="M427.93,366.77a10.3,10.3,0,0,1-6.83-2.28,15.44,15.44,0,0,1-4.35-6.16,35.85,35.85,0,0,1-2.31-8.79q-6.39,14.86-18.84,14.87-10.73,0-15.1-8.47-3.4-6.69-3.4-16.54c0-1.77.08-3.56.23-5.36q1.28-14.48,7.9-24.26,7.42-10.89,19.76-10.89a17.27,17.27,0,0,1,6.25,1,16,16,0,0,1,4.56,2.62,13.58,13.58,0,0,1,2.91,3.32,11.21,11.21,0,0,1,3.37-4.67q2.22-1.79,6.6-1.79c3.84,0,6.35,1,7.55,3q2.88,5.07,2.88,19.31a107.25,107.25,0,0,1-4.32,30.83q5.29-4.56,11.38-14.21A113.7,113.7,0,0,0,455,322.17a32.78,32.78,0,0,1,2.05-4.38,5.44,5.44,0,0,1,1.44-1.76,2.25,2.25,0,0,1,1.18-.38c.77,0,1.15.56,1.15,1.68a21.24,21.24,0,0,1-1.15,5.7,156,156,0,0,1-6.28,16.6A80.37,80.37,0,0,1,442.56,358Q435.48,366.77,427.93,366.77Zm-26.86-14.41q4.21,0,9-12.44a103.7,103.7,0,0,0,6.28-26,7.51,7.51,0,0,0-6.1-3.29q-5.82,0-9.4,7a47.14,47.14,0,0,0-4.49,15.1,56.31,56.31,0,0,0-.58,7.72Q395.77,352.37,401.07,352.36Z"/><path class="cls-3" d="M54.33,256.11A35.33,35.33,0,0,1,40,253.52Q22,245.63,22,217.1a68.56,68.56,0,0,1,2.59-19.71,48,48,0,0,1,13.77-22.47q10.78-9.73,26.4-9.74a29.17,29.17,0,0,1,10.37,1.67A21.61,21.61,0,0,1,87,177.34a24.55,24.55,0,0,1,2.77,11.23,17.91,17.91,0,0,1-1.85,8.53q-1.44,2.66-3.4,2.65c-2,0-3.2-1.19-3.74-3.57q-2.07-8.82-5.33-12.88a10,10,0,0,0-8.16-4.06q-6.16,0-11.61,8.93t-6.94,23.74c-.16,1.62-.23,3.44-.23,5.48q0,10.26,2.3,16.77,2.77,7.89,8.65,7.89t9.33-6.51a36.39,36.39,0,0,0,3.46-13.77l-5.07.06a10.12,10.12,0,0,1-4.58-.87c-1.14-.58-1.7-1.73-1.7-3.46a4,4,0,0,1,1.75-3.63,12.87,12.87,0,0,1,4.87-1.67,78.34,78.34,0,0,1,12-1.27c3,0,5.11.69,6.34,2a8.88,8.88,0,0,1,2.07,5.56c.08.88.12,1.83.12,2.82q0,17.8-12.57,27.9Q66.9,256.12,54.33,256.11Z"/><path class="cls-3" d="M145.73,256.86a10.37,10.37,0,0,1-6.83-2.27,15.75,15.75,0,0,1-4.35-6.17,35.73,35.73,0,0,1-2.3-8.79q-6.41,14.87-18.85,14.87-10.71,0-15.1-8.47-3.39-6.69-3.4-16.54c0-1.77.08-3.55.23-5.36q1.28-14.46,7.9-24.26Q110.47,189,122.8,189a17.09,17.09,0,0,1,6.25,1,15.79,15.79,0,0,1,4.55,2.62,13.36,13.36,0,0,1,2.91,3.31,11.21,11.21,0,0,1,3.37-4.67q2.22-1.78,6.6-1.78,5.76,0,7.55,3,2.88,5.07,2.88,19.31a107.2,107.2,0,0,1-4.32,30.83q5.29-4.56,11.38-14.21a115,115,0,0,0,8.79-16.16,33,33,0,0,1,2-4.38,5.56,5.56,0,0,1,1.44-1.76,2.26,2.26,0,0,1,1.19-.37c.76,0,1.15.56,1.15,1.67a21.58,21.58,0,0,1-1.15,5.7,155.4,155.4,0,0,1-6.29,16.6,80.37,80.37,0,0,1-10.77,18.38Q153.27,256.86,145.73,256.86Zm-26.85-14.4q4.2,0,9-12.45a104,104,0,0,0,6.28-26,7.53,7.53,0,0,0-6.11-3.29q-5.82,0-9.39,7a47.22,47.22,0,0,0-4.5,15.1,57.93,57.93,0,0,0-.57,7.72Q113.58,242.46,118.88,242.46Z"/><path class="cls-3" d="M185,256.86q-8.06,0-11.64-10.77-2.82-8.47-2.82-22.36v-5.07a208.44,208.44,0,0,1,2-23.86q2.29-17.3,5.18-23.74,2.53-5.76,10.15-5.77,7.14,0,8.81,5.71,1.5,5.19,1.5,16.42,0,10.49-1,22.76-1.84,20.76-5.36,32.45,5.31-4.56,11.41-14.21A111.56,111.56,0,0,0,212,212.26a32.78,32.78,0,0,1,2.05-4.38,5.3,5.3,0,0,1,1.44-1.76,2.2,2.2,0,0,1,1.18-.37c.77,0,1.15.56,1.15,1.67a20.26,20.26,0,0,1-1.21,5.7q-7.43,23.17-17,35Q192.53,256.86,185,256.86Z"/><path class="cls-3" d="M259.43,256.86a10.35,10.35,0,0,1-6.83-2.27,15.55,15.55,0,0,1-4.35-6.17,35.73,35.73,0,0,1-2.31-8.79q-6.39,14.87-18.84,14.87-10.72,0-15.1-8.47-3.41-6.69-3.4-16.54c0-1.77.08-3.55.23-5.36q1.28-14.46,7.9-24.26Q224.16,189,236.49,189a17.15,17.15,0,0,1,6.26,1,15.79,15.79,0,0,1,4.55,2.62,13.36,13.36,0,0,1,2.91,3.31,11.21,11.21,0,0,1,3.37-4.67q2.22-1.78,6.6-1.78,5.76,0,7.55,3,2.88,5.07,2.88,19.31a107.2,107.2,0,0,1-4.32,30.83q5.29-4.56,11.38-14.21a113.7,113.7,0,0,0,8.78-16.16,32.78,32.78,0,0,1,2.05-4.38,5.56,5.56,0,0,1,1.44-1.76,2.23,2.23,0,0,1,1.18-.37c.77,0,1.16.56,1.16,1.67a21.28,21.28,0,0,1-1.16,5.7,155.2,155.2,0,0,1-6.28,16.6,80.37,80.37,0,0,1-10.77,18.38Q267,256.86,259.43,256.86Zm-26.86-14.4q4.22,0,9-12.45a104,104,0,0,0,6.29-26,7.54,7.54,0,0,0-6.11-3.29q-5.82,0-9.4,7a47.22,47.22,0,0,0-4.49,15.1,56.42,56.42,0,0,0-.58,7.72Q227.27,242.46,232.57,242.46Z"/><path class="cls-3" d="M280.87,257.32a4.06,4.06,0,0,1-2.74-.95A2.94,2.94,0,0,1,277,254q0-2.47,5.13-8.41,4.56-5.25,9.57-10.44c2.34-2.42,4.22-4.43,5.65-6.05a113.52,113.52,0,0,1-10.2-17.8,36.71,36.71,0,0,1-3.4-15.22c0-.84,0-1.67.05-2.47a7.2,7.2,0,0,1,2.42-5.22,7.79,7.79,0,0,1,5-1.64q6.39,0,12,6.05a73.81,73.81,0,0,1,8.76,12.1q1.5,2.53,2.88,4.61a70.39,70.39,0,0,0,6.86-9.91A67.63,67.63,0,0,1,326,193q4-5.35,10-5.35,5.53,0,5.54,4.14,0,3.87-3.69,10.26a104.91,104.91,0,0,1-14.7,19.54c1.12,1.53,2.4,3.51,3.86,5.93q5.25,8.7,5.25,14.87a33,33,0,0,0,7.23-8.44,139.37,139.37,0,0,0,7-12.07c2.11-4.12,3.63-7.3,4.55-9.57a32.78,32.78,0,0,1,2.05-4.38,5.3,5.3,0,0,1,1.47-1.76,2.38,2.38,0,0,1,1.21-.37c.73,0,1.09.52,1.09,1.55q0,3.28-4.26,14.53a117,117,0,0,1-10.43,21.37q-7.2,11.25-14.12,11.24a19.92,19.92,0,0,1-12.5-4.55,53.74,53.74,0,0,1-8.53-8.64c-.58-.73-1.14-1.41-1.67-2Q286.22,257.32,280.87,257.32Z"/><path class="cls-3" d="M362.52,256.86q-7.89,0-11.18-9-2.54-6.8-2.53-17.86a104.15,104.15,0,0,1,.86-12.85q2.31-18.45,6.74-24.61,2.25-3,8.24-3.05,5.66,0,7.44,2.94,2.7,4.55,2.71,16.88a110.13,110.13,0,0,1-5.42,33.31q5.3-4.56,11.38-14.21a115,115,0,0,0,8.79-16.16,34.36,34.36,0,0,1,2-4.38,5.42,5.42,0,0,1,1.45-1.76,2.2,2.2,0,0,1,1.18-.37c.76,0,1.15.56,1.15,1.67a20.26,20.26,0,0,1-1.21,5.7q-7.44,23.17-17,35Q370.07,256.86,362.52,256.86Zm2.65-71.8a11.29,11.29,0,0,1-4.38-.92,6.87,6.87,0,0,1-4.72-6.86,9.43,9.43,0,0,1,3.8-7.95,11.75,11.75,0,0,1,7.15-2.42,12.16,12.16,0,0,1,4.32.86q4.79,1.9,4.78,7.32a9.34,9.34,0,0,1-2,6Q371.05,185.05,365.17,185.06Z"/><path class="cls-3" d="M437,256.86a10.35,10.35,0,0,1-6.83-2.27,15.55,15.55,0,0,1-4.35-6.17,35.73,35.73,0,0,1-2.31-8.79q-6.39,14.87-18.84,14.87-10.72,0-15.1-8.47-3.41-6.69-3.4-16.54c0-1.77.08-3.55.23-5.36q1.26-14.46,7.89-24.26Q401.71,189,414,189a17.05,17.05,0,0,1,6.25,1,15.72,15.72,0,0,1,4.56,2.62,13.79,13.79,0,0,1,2.91,3.31,11.12,11.12,0,0,1,3.37-4.67q2.22-1.78,6.59-1.78c3.85,0,6.36,1,7.55,3q2.88,5.07,2.89,19.31a107.2,107.2,0,0,1-4.33,30.83q5.31-4.56,11.38-14.21A112.9,112.9,0,0,0,464,212.26a32.78,32.78,0,0,1,2.05-4.38,5.43,5.43,0,0,1,1.44-1.76,2.23,2.23,0,0,1,1.18-.37c.77,0,1.15.56,1.15,1.67a21.17,21.17,0,0,1-1.15,5.7,157.38,157.38,0,0,1-6.28,16.6,80.74,80.74,0,0,1-10.78,18.38Q444.53,256.86,437,256.86Zm-26.86-14.4q4.22,0,9-12.45a104,104,0,0,0,6.28-26,7.51,7.51,0,0,0-6.11-3.29q-5.82,0-9.39,7a47.22,47.22,0,0,0-4.49,15.1,56.42,56.42,0,0,0-.58,7.72Q404.82,242.46,410.12,242.46Z"/><path class="cls-4" d="M37.28,366a8.51,8.51,0,0,1-4.93-1.15,5.41,5.41,0,0,1-2.1-3.09,16.52,16.52,0,0,1-.52-4.35,115.53,115.53,0,0,1,1.5-17.52q2.76-18,6.45-29.21,4.6-14.42,11.87-24.09,8.7-11.52,19.59-11.53a15.65,15.65,0,0,1,8.94,2.65q7.36,5.08,12,17.64a107.6,107.6,0,0,1,5.54,24.84,135.64,135.64,0,0,1,.8,14.17c0,2.69-.07,5.07-.23,7.15q-1,12.68-3.63,18.09-3,6.17-10.2,6.17a12.82,12.82,0,0,1-6.6-1.44,8,8,0,0,1-3.4-4,18.19,18.19,0,0,1-1.12-6q-.23-10-.87-18.84-1.89.34-5.07.69a77.86,77.86,0,0,1-7.78.4,54.58,54.58,0,0,1-8.64-.63q-2,11.74-3,21.78Q44.94,366,37.28,366ZM50.76,326.6a53.24,53.24,0,0,1,7.67-.57l3.63-.06a56.16,56.16,0,0,1,7.55.46q-1.44-14-3.29-23t-3.23-11.07Q56,302.29,50.76,326.6Z"/><path class="cls-4" d="M120.55,366.77q-8.07,0-11.64-10.78-2.84-8.48-2.83-22.36v-5.07a208.62,208.62,0,0,1,2-23.86q2.31-17.28,5.19-23.74,2.53-5.76,10.14-5.76,7.14,0,8.82,5.7,1.5,5.19,1.49,16.43,0,10.49-1,22.76-1.85,20.75-5.36,32.44,5.29-4.54,11.41-14.2a113.58,113.58,0,0,0,8.82-16.17,33,33,0,0,1,2-4.38,5.49,5.49,0,0,1,1.44-1.75,2.25,2.25,0,0,1,1.18-.38c.77,0,1.16.56,1.16,1.67a20.68,20.68,0,0,1-1.21,5.71q-7.44,23.16-17,35Q128.1,366.77,120.55,366.77Z"/><path class="cls-4" d="M170.28,366.65q-13.89,0-20-8t-6.1-20.43q0-18.44,9.47-30a30.31,30.31,0,0,1,24.52-11.53q9.81,0,14.38,4.82a16.32,16.32,0,0,1,4.58,11.72q0,10.09-6.68,16.28t-13.66,6.2a9,9,0,0,1-7.72-3.75c-.12,1.27-.17,2.59-.17,4a37.22,37.22,0,0,0,1.15,9.51q2.13,8.24,8.7,8.24a12.84,12.84,0,0,0,7-2.25,34.19,34.19,0,0,0,6.8-5.85,68.42,68.42,0,0,0,6.14-7.81,87.62,87.62,0,0,0,5-8.3,79.81,79.81,0,0,0,3.49-7.32,34.06,34.06,0,0,1,2.05-4.38,5.24,5.24,0,0,1,1.44-1.75,2.22,2.22,0,0,1,1.18-.38c.77,0,1.15.56,1.15,1.67a20.31,20.31,0,0,1-1.21,5.71q-9.74,30.42-25,39.24A32.38,32.38,0,0,1,170.28,366.65ZM175.7,328q4.32,0,7.34-4.72a18.36,18.36,0,0,0,3-10.09q0-5.24-3.23-5.24a8.78,8.78,0,0,0-6.08,2.25,16.9,16.9,0,0,0-4.12,5.93,39.66,39.66,0,0,0-2.48,8C171.32,326.76,173.16,328,175.7,328Z"/><path class="cls-4" d="M228.83,390.51q-6.17,0-9.86-2.65a7.67,7.67,0,0,1-3.16-6.69q0-10.77,11.92-18.84,4.44-3,12.16-7.32.69-4.26,1.5-10.95-5.76,12-17.69,12-10,0-14.81-8.13a30,30,0,0,1-4-15.73q0-.51.06-2.91a26.24,26.24,0,0,1,1-6,39.36,39.36,0,0,1,9-17,22.64,22.64,0,0,1,17.23-7.38,19.83,19.83,0,0,1,6.54,1,16.91,16.91,0,0,1,4.67,2.42,13.63,13.63,0,0,1,2.91,2.94q2.19-10.08,11.75-10.08,4.56,0,6.6,1.81a8.9,8.9,0,0,1,2.74,4.7q1.44,6.39,1.44,19.82,0,7.9-.75,16.08,9.57-7.32,12.91-15.39a32.31,32.31,0,0,1,2.07-4.38c.85-1.42,1.71-2.13,2.6-2.13.73,0,1.09.5,1.09,1.5q0,3.81-2.59,9.39-4.79,10.32-17.17,19.6-3.35,18.5-12.68,30.71Q243.86,390.52,228.83,390.51Zm.34-46.39a6.68,6.68,0,0,0,4.85-2.48,27.28,27.28,0,0,0,4.23-6.31,62.64,62.64,0,0,0,3.37-8q1.44-4.2,2.34-7.81a38.71,38.71,0,0,0,1.06-5.61,7.78,7.78,0,0,0-7.49-4.79q-5.82,0-9.51,6.46a37,37,0,0,0-4,12.27,39.29,39.29,0,0,0-.52,5.88Q223.53,344.12,229.17,344.12Zm-2.88,37.46a6.75,6.75,0,0,0,5.07-2.34,20.82,20.82,0,0,0,3.81-6.1,54.25,54.25,0,0,0,2.71-8.22Q225,373.46,225,380.14,225,381.58,226.29,381.58Z"/><path class="cls-4" d="M288.53,365.67q-6.11,0-7.95-4.32t-1.85-15.9q0-6.52.69-16,1.74-23.24,7-29.86,2.76-3.45,8.7-3.45c3.07,0,5.43.8,7.09,2.42a9.17,9.17,0,0,1,2.65,5.24,45,45,0,0,1,.46,7,34.49,34.49,0,0,1,8.15-10.26,14.83,14.83,0,0,1,9.42-3.74q4.27,0,6.51,2.19,3.69,3.69,3.69,11.35a45.18,45.18,0,0,1-1.09,9.39q-1.62,7.78-3,9.57a10.45,10.45,0,0,0,5.16-1.73,20.1,20.1,0,0,0,5-4.15,24.48,24.48,0,0,0,3.32-4.78,11.54,11.54,0,0,1,1.24-2,2.7,2.7,0,0,1,1-.83,2.33,2.33,0,0,1,.9-.18c.69,0,1,.46,1,1.39q0,4.72-3.64,9.79a28.7,28.7,0,0,1-8.35,7.67,18.9,18.9,0,0,1-9.91,3.17,7.4,7.4,0,0,1-5.3-1.91q-3.93-3.57-3.92-12.44a36,36,0,0,1,2.59-13.66q-2.53,0-4.78,3-4.1,5.41-7.61,17.63a137.69,137.69,0,0,0-3.86,17.4q-1.56,10.6-4.15,13.95Q294.58,365.67,288.53,365.67Z"/><path class="cls-4" d="M353.48,366.77q-7.91,0-11.18-9-2.55-6.81-2.54-17.87a104.41,104.41,0,0,1,.86-12.85q2.31-18.44,6.75-24.6c1.5-2,4.24-3.06,8.24-3.06q5.64,0,7.43,2.94,2.71,4.56,2.71,16.88a110.13,110.13,0,0,1-5.42,33.31q5.31-4.54,11.38-14.2a112.93,112.93,0,0,0,8.79-16.17,34.06,34.06,0,0,1,2.05-4.38A5.36,5.36,0,0,1,384,316a2.25,2.25,0,0,1,1.18-.38c.77,0,1.15.56,1.15,1.67a20.31,20.31,0,0,1-1.21,5.71q-7.42,23.16-17,35Q361,366.77,353.48,366.77Zm-.35-70.94a1.73,1.73,0,0,1-1.38-.58,2.12,2.12,0,0,1-.52-1.5q0-2.24,2.94-7.49,5.13-9.17,9.22-10.49a15.66,15.66,0,0,1,4.67-.63q4.6,0,4.6,3.11c0,2.08-1.38,4.61-4.14,7.61a47,47,0,0,1-8.24,6.94Q355.72,295.83,353.13,295.83Z"/><path class="cls-4" d="M427.93,366.77a10.3,10.3,0,0,1-6.83-2.28,15.61,15.61,0,0,1-4.35-6.16,36.42,36.42,0,0,1-2.31-8.79q-6.39,14.86-18.84,14.86-10.73,0-15.1-8.47-3.39-6.68-3.4-16.54c0-1.76.08-3.55.23-5.35q1.28-14.48,7.9-24.27,7.42-10.89,19.76-10.89a17.32,17.32,0,0,1,6.26,1,16,16,0,0,1,4.55,2.62,13.4,13.4,0,0,1,2.91,3.32,11.14,11.14,0,0,1,3.37-4.67q2.22-1.79,6.6-1.79,5.76,0,7.55,3,2.88,5.07,2.88,19.3a107.2,107.2,0,0,1-4.32,30.83q5.29-4.54,11.38-14.2A115,115,0,0,0,455,322.16a33,33,0,0,1,2-4.38,5.49,5.49,0,0,1,1.44-1.75,2.27,2.27,0,0,1,1.18-.38c.77,0,1.16.56,1.16,1.67a21.33,21.33,0,0,1-1.16,5.71,156,156,0,0,1-6.28,16.6A80.59,80.59,0,0,1,442.57,358Q435.48,366.77,427.93,366.77Zm-26.85-14.41q4.2,0,9-12.45a103.94,103.94,0,0,0,6.29-26,7.52,7.52,0,0,0-6.11-3.28q-5.82,0-9.4,7a47.14,47.14,0,0,0-4.49,15.1,57.93,57.93,0,0,0-.58,7.72Q395.77,352.35,401.08,352.36Z"/></g></svg>