<?xml version="1.0" encoding="utf-8"?>
<!-- Generator: Adobe Illustrator 25.2.3, SVG Export Plug-In . SVG Version: 6.00 Build 0)  -->
<svg version="1.1" id="OBJECTS" xmlns="http://www.w3.org/2000/svg" xmlns:xlink="http://www.w3.org/1999/xlink" x="0px" y="0px"
	 viewBox="0 0 1920 1080" style="enable-background:new 0 0 1920 1080;" xml:space="preserve">
<style type="text/css">
	.st0{fill:url(#SVGID_1_);}
	.st1{fill:#2A113F;}
	.st2{opacity:0.12;}
	.st3{fill:url(#SVGID_2_);}
	.st4{fill:url(#SVGID_3_);}
	.st5{fill:url(#SVGID_4_);}
	.st6{fill:url(#SVGID_5_);}
	.st7{fill:url(#SVGID_6_);}
	.st8{fill:url(#SVGID_7_);}
	.st9{fill:url(#SVGID_8_);}
	.st10{fill:url(#SVGID_9_);}
	.st11{fill:url(#SVGID_10_);}
	.st12{fill:url(#SVGID_11_);}
	.st13{fill:url(#SVGID_12_);}
	.st14{fill:url(#SVGID_13_);}
	.st15{fill:url(#SVGID_14_);}
	.st16{fill:url(#SVGID_15_);}
	.st17{fill:url(#SVGID_16_);}
	.st18{fill:url(#SVGID_17_);}
	.st19{fill:url(#SVGID_18_);}
	.st20{fill:url(#SVGID_19_);}
	.st21{fill:url(#SVGID_20_);}
	.st22{fill:url(#SVGID_21_);}
	.st23{fill:url(#SVGID_22_);}
	.st24{fill:url(#SVGID_23_);}
	.st25{fill:url(#SVGID_24_);}
	.st26{fill:url(#SVGID_25_);}
	.st27{fill:url(#SVGID_26_);}
	.st28{fill:url(#SVGID_27_);}
	.st29{fill:url(#SVGID_28_);}
	.st30{fill:url(#SVGID_29_);}
	.st31{fill:url(#SVGID_30_);}
	.st32{fill:url(#SVGID_31_);}
	.st33{fill:url(#SVGID_32_);}
	.st34{fill:url(#SVGID_33_);}
	.st35{fill:url(#SVGID_34_);}
	.st36{fill:url(#SVGID_35_);}
	.st37{fill:url(#SVGID_36_);}
	.st38{fill:url(#SVGID_37_);}
	.st39{fill:url(#SVGID_38_);}
	.st40{fill:url(#SVGID_39_);}
	.st41{fill:url(#SVGID_40_);}
	.st42{fill:url(#SVGID_41_);}
	.st43{fill:url(#SVGID_42_);}
	.st44{fill:url(#SVGID_43_);}
	.st45{fill:url(#SVGID_44_);}
	.st46{fill:url(#SVGID_45_);}
	.st47{fill:url(#SVGID_46_);}
	.st48{fill:url(#SVGID_47_);}
	.st49{fill:url(#SVGID_48_);}
	.st50{fill:url(#SVGID_49_);}
	.st51{fill:url(#SVGID_50_);}
	.st52{fill:url(#SVGID_51_);}
	.st53{fill:url(#SVGID_52_);}
	.st54{fill:url(#SVGID_53_);}
	.st55{fill:url(#SVGID_54_);}
	.st56{fill:url(#SVGID_55_);}
	.st57{fill:url(#SVGID_56_);}
	.st58{fill:url(#SVGID_57_);}
	.st59{fill:url(#SVGID_58_);}
	.st60{fill:url(#SVGID_59_);}
	.st61{fill:url(#SVGID_60_);}
	.st62{fill:url(#SVGID_61_);}
	.st63{fill:url(#SVGID_62_);}
</style>
<linearGradient id="SVGID_1_" gradientUnits="userSpaceOnUse" x1="960" y1="-9.094947e-13" x2="960" y2="1080" gradientTransform="matrix(1 0 0 -1 0 1080)">
	<stop  offset="2.717173e-07" style="stop-color:#3A006A"/>
	<stop  offset="0.1149" style="stop-color:#29004B"/>
	<stop  offset="0.2431" style="stop-color:#1A0030"/>
	<stop  offset="0.3828" style="stop-color:#0E001A"/>
	<stop  offset="0.538" style="stop-color:#06000B"/>
	<stop  offset="0.7209" style="stop-color:#010003"/>
	<stop  offset="1" style="stop-color:#000000"/>
</linearGradient>
<rect class="st0" width="1920" height="1080"/>
<image style="overflow:visible;opacity:0.35;enable-background:new    ;" width="3990" height="2285" xlink:href="D170A66F.png"  transform="matrix(0.4798 0 0 0.4798 2.7615 -8.193)">
</image>
<rect x="-1690.3" y="797.82" class="st1" width="600" height="200"/>
<g class="st2">
	<g>
		<linearGradient id="SVGID_2_" gradientUnits="userSpaceOnUse" x1="375.0577" y1="68.9768" x2="340.5359" y2="133.1178">
			<stop  offset="0" style="stop-color:#EBEFF0"/>
			<stop  offset="1" style="stop-color:#E6E8F1"/>
		</linearGradient>
		<polygon class="st3" points="369.95,46.7 380.18,67.42 403.05,70.75 386.5,86.88 390.41,109.65 369.95,98.9 349.5,109.65 
			353.41,86.88 336.86,70.75 359.73,67.42 		"/>
		<linearGradient id="SVGID_3_" gradientUnits="userSpaceOnUse" x1="851.5168" y1="691.6317" x2="828.8413" y2="733.7624">
			<stop  offset="0" style="stop-color:#EBEFF0"/>
			<stop  offset="1" style="stop-color:#E6E8F1"/>
		</linearGradient>
		<polygon class="st4" points="848.16,677 854.88,690.61 869.9,692.79 859.03,703.39 861.6,718.35 848.16,711.28 834.73,718.35 
			837.29,703.39 826.43,692.79 841.45,690.61 		"/>
		<linearGradient id="SVGID_4_" gradientUnits="userSpaceOnUse" x1="282.9161" y1="172.3505" x2="273.7103" y2="189.4547">
			<stop  offset="0" style="stop-color:#EBEFF0"/>
			<stop  offset="1" style="stop-color:#E6E8F1"/>
		</linearGradient>
		<polygon class="st5" points="281.56,166.41 284.29,171.94 290.38,172.82 285.97,177.13 287.01,183.2 281.56,180.33 276.1,183.2 
			277.15,177.13 272.73,172.82 278.83,171.94 		"/>
		<linearGradient id="SVGID_5_" gradientUnits="userSpaceOnUse" x1="645.0938" y1="344.3971" x2="626.7949" y2="378.3963">
			<stop  offset="0" style="stop-color:#EBEFF0"/>
			<stop  offset="1" style="stop-color:#E6E8F1"/>
		</linearGradient>
		<polygon class="st6" points="642.39,332.59 647.81,343.57 659.93,345.33 651.16,353.88 653.23,365.96 642.39,360.26 
			631.55,365.96 633.62,353.88 624.85,345.33 636.97,343.57 		"/>
		<linearGradient id="SVGID_6_" gradientUnits="userSpaceOnUse" x1="769.1436" y1="360.7208" x2="754.7133" y2="387.532">
			<stop  offset="0" style="stop-color:#EBEFF0"/>
			<stop  offset="1" style="stop-color:#E6E8F1"/>
		</linearGradient>
		<polygon class="st7" points="767.01,351.41 771.29,360.07 780.85,361.46 773.93,368.2 775.56,377.72 767.01,373.23 758.46,377.72 
			760.1,368.2 753.18,361.46 762.74,360.07 		"/>
		
			<linearGradient id="SVGID_7_" gradientUnits="userSpaceOnUse" x1="753.199" y1="710.4839" x2="734.0175" y2="746.1226" gradientTransform="matrix(6.123234e-17 -1 1 6.123234e-17 -635.0803 1219.9526)">
			<stop  offset="0" style="stop-color:#EBEFF0"/>
			<stop  offset="1" style="stop-color:#E6E8F1"/>
		</linearGradient>
		<polygon class="st8" points="63.03,469.59 74.54,463.91 76.39,451.2 85.35,460.39 98,458.22 92.03,469.59 98,480.95 85.35,478.78 
			76.39,487.98 74.54,475.27 		"/>
		
			<linearGradient id="SVGID_8_" gradientUnits="userSpaceOnUse" x1="1138.1183" y1="803.1213" x2="1122.6376" y2="831.8843" gradientTransform="matrix(6.123234e-17 -1 1 6.123234e-17 -635.0803 1219.9526)">
			<stop  offset="0" style="stop-color:#EBEFF0"/>
			<stop  offset="1" style="stop-color:#E6E8F1"/>
		</linearGradient>
		<polygon class="st9" points="158.05,84.12 167.34,79.54 168.83,69.28 176.07,76.7 186.28,74.95 181.46,84.12 186.28,93.3 
			176.07,91.54 168.83,98.96 167.34,88.71 		"/>
		<linearGradient id="SVGID_9_" gradientUnits="userSpaceOnUse" x1="1431.9801" y1="42.9398" x2="1413.5685" y2="77.1483">
			<stop  offset="0" style="stop-color:#EBEFF0"/>
			<stop  offset="1" style="stop-color:#E6E8F1"/>
		</linearGradient>
		<polygon class="st10" points="1429.26,31.06 1434.71,42.11 1446.91,43.88 1438.08,52.49 1440.17,64.63 1429.26,58.9 
			1418.35,64.63 1420.43,52.49 1411.61,43.88 1423.8,42.11 		"/>
		<linearGradient id="SVGID_10_" gradientUnits="userSpaceOnUse" x1="1627.4862" y1="79.4821" x2="1609.9369" y2="112.0886">
			<stop  offset="0" style="stop-color:#EBEFF0"/>
			<stop  offset="1" style="stop-color:#E6E8F1"/>
		</linearGradient>
		<polygon class="st11" points="1624.89,68.16 1630.09,78.69 1641.71,80.38 1633.3,88.58 1635.29,100.16 1624.89,94.69 
			1614.49,100.16 1616.48,88.58 1608.07,80.38 1619.69,78.69 		"/>
		<linearGradient id="SVGID_11_" gradientUnits="userSpaceOnUse" x1="1288.484" y1="303.0708" x2="1280.1008" y2="318.6467">
			<stop  offset="0" style="stop-color:#EBEFF0"/>
			<stop  offset="1" style="stop-color:#E6E8F1"/>
		</linearGradient>
		<polygon class="st12" points="1287.25,297.66 1289.73,302.69 1295.28,303.5 1291.26,307.42 1292.21,312.95 1287.25,310.34 
			1282.28,312.95 1283.23,307.42 1279.21,303.5 1284.76,302.69 		"/>
		<linearGradient id="SVGID_12_" gradientUnits="userSpaceOnUse" x1="1262.9913" y1="110.3435" x2="1250.6235" y2="133.3226">
			<stop  offset="0" style="stop-color:#EBEFF0"/>
			<stop  offset="1" style="stop-color:#E6E8F1"/>
		</linearGradient>
		<polygon class="st13" points="1261.16,102.36 1264.82,109.79 1273.02,110.98 1267.09,116.75 1268.49,124.91 1261.16,121.06 
			1253.83,124.91 1255.23,116.75 1249.31,110.98 1257.5,109.79 		"/>
		<linearGradient id="SVGID_13_" gradientUnits="userSpaceOnUse" x1="1629.5479" y1="700.4258" x2="1598.0165" y2="759.0107">
			<stop  offset="0" style="stop-color:#EBEFF0"/>
			<stop  offset="1" style="stop-color:#E6E8F1"/>
		</linearGradient>
		<polygon class="st14" points="1624.89,680.08 1634.23,699.01 1655.12,702.04 1640,716.78 1643.57,737.58 1624.89,727.76 
			1606.21,737.58 1609.78,716.78 1594.66,702.04 1615.55,699.01 		"/>
		<linearGradient id="SVGID_14_" gradientUnits="userSpaceOnUse" x1="1041.0669" y1="963.0673" x2="1010.5008" y2="1019.8587">
			<stop  offset="0" style="stop-color:#EBEFF0"/>
			<stop  offset="1" style="stop-color:#E6E8F1"/>
		</linearGradient>
		<polygon class="st15" points="1036.55,943.35 1045.6,961.69 1065.85,964.63 1051.2,978.91 1054.66,999.08 1036.55,989.56 
			1018.44,999.08 1021.9,978.91 1007.25,964.63 1027.49,961.69 		"/>
		<linearGradient id="SVGID_15_" gradientUnits="userSpaceOnUse" x1="1118.0359" y1="716.9624" x2="1096.1373" y2="757.6496">
			<stop  offset="0" style="stop-color:#EBEFF0"/>
			<stop  offset="1" style="stop-color:#E6E8F1"/>
		</linearGradient>
		<polygon class="st16" points="1114.8,702.83 1121.29,715.98 1135.79,718.09 1125.3,728.32 1127.77,742.76 1114.8,735.94 
			1101.83,742.76 1104.3,728.32 1093.81,718.09 1108.31,715.98 		"/>
		<linearGradient id="SVGID_16_" gradientUnits="userSpaceOnUse" x1="793.7441" y1="993.9241" x2="779.5377" y2="1020.3196">
			<stop  offset="0" style="stop-color:#EBEFF0"/>
			<stop  offset="1" style="stop-color:#E6E8F1"/>
		</linearGradient>
		<polygon class="st17" points="791.65,984.76 795.86,993.29 805.27,994.65 798.46,1001.29 800.06,1010.66 791.65,1006.24 
			783.23,1010.66 784.84,1001.29 778.03,994.65 787.44,993.29 		"/>
		<linearGradient id="SVGID_17_" gradientUnits="userSpaceOnUse" x1="1280.9463" y1="1035.1042" x2="1269.1997" y2="1056.9292">
			<stop  offset="0" style="stop-color:#EBEFF0"/>
			<stop  offset="1" style="stop-color:#E6E8F1"/>
		</linearGradient>
		<polygon class="st18" points="1279.21,1027.53 1282.69,1034.58 1290.47,1035.71 1284.84,1041.19 1286.17,1048.94 1279.21,1045.28 
			1272.25,1048.94 1273.58,1041.19 1267.95,1035.71 1275.73,1034.58 		"/>
		<linearGradient id="SVGID_18_" gradientUnits="userSpaceOnUse" x1="1702.543" y1="982.6743" x2="1696.7921" y2="993.3592">
			<stop  offset="0" style="stop-color:#EBEFF0"/>
			<stop  offset="1" style="stop-color:#E6E8F1"/>
		</linearGradient>
		<polygon class="st19" points="1701.69,978.96 1703.4,982.42 1707.21,982.97 1704.45,985.66 1705.1,989.45 1701.69,987.66 
			1698.29,989.45 1698.94,985.66 1696.18,982.97 1699.99,982.42 		"/>
		<linearGradient id="SVGID_19_" gradientUnits="userSpaceOnUse" x1="1703.3861" y1="525.1213" x2="1691.932" y2="546.4028">
			<stop  offset="0" style="stop-color:#EBEFF0"/>
			<stop  offset="1" style="stop-color:#E6E8F1"/>
		</linearGradient>
		<polygon class="st20" points="1701.69,517.73 1705.09,524.61 1712.67,525.71 1707.18,531.06 1708.48,538.62 1701.69,535.05 
			1694.91,538.62 1696.2,531.06 1690.71,525.71 1698.3,524.61 		"/>
		<linearGradient id="SVGID_20_" gradientUnits="userSpaceOnUse" x1="1417.2096" y1="653.7112" x2="1400.7059" y2="684.3747">
			<stop  offset="0" style="stop-color:#EBEFF0"/>
			<stop  offset="1" style="stop-color:#E6E8F1"/>
		</linearGradient>
		<polygon class="st21" points="1414.77,643.06 1419.66,652.97 1430.59,654.56 1422.68,662.27 1424.55,673.15 1414.77,668.01 
			1404.99,673.15 1406.86,662.27 1398.95,654.56 1409.88,652.97 		"/>
		<linearGradient id="SVGID_21_" gradientUnits="userSpaceOnUse" x1="252.3939" y1="87.8839" x2="250.6652" y2="91.0959">
			<stop  offset="0" style="stop-color:#EBEFF0"/>
			<stop  offset="1" style="stop-color:#E6E8F1"/>
		</linearGradient>
		<circle class="st22" cx="252.03" cy="88.56" r="1.63"/>
		<linearGradient id="SVGID_22_" gradientUnits="userSpaceOnUse" x1="501.7651" y1="82.4733" x2="493.9691" y2="96.9583">
			<stop  offset="0" style="stop-color:#EBEFF0"/>
			<stop  offset="1" style="stop-color:#E6E8F1"/>
		</linearGradient>
		<path class="st23" d="M507.47,85.53c0,4.06-3.29,7.35-7.35,7.35s-7.35-3.29-7.35-7.35s3.29-7.35,7.35-7.35
			S507.47,81.47,507.47,85.53z"/>
		<linearGradient id="SVGID_23_" gradientUnits="userSpaceOnUse" x1="190.1963" y1="293.1291" x2="186.801" y2="299.4373">
			<stop  offset="0" style="stop-color:#EBEFF0"/>
			<stop  offset="1" style="stop-color:#E6E8F1"/>
		</linearGradient>
		<circle class="st24" cx="189.48" cy="294.46" r="3.2"/>
		<linearGradient id="SVGID_24_" gradientUnits="userSpaceOnUse" x1="475.5055" y1="198.7917" x2="469.7428" y2="209.4986">
			<stop  offset="0" style="stop-color:#EBEFF0"/>
			<stop  offset="1" style="stop-color:#E6E8F1"/>
		</linearGradient>
		<circle class="st25" cx="474.29" cy="201.05" r="5.43"/>
		<linearGradient id="SVGID_25_" gradientUnits="userSpaceOnUse" x1="637.377" y1="197.2024" x2="634.4954" y2="202.5559">
			<stop  offset="0" style="stop-color:#EBEFF0"/>
			<stop  offset="1" style="stop-color:#E6E8F1"/>
		</linearGradient>
		<circle class="st26" cx="636.77" cy="198.33" r="2.72"/>
		
			<linearGradient id="SVGID_26_" gradientUnits="userSpaceOnUse" x1="917.7546" y1="766.9987" x2="913.3445" y2="775.1925" gradientTransform="matrix(6.123234e-17 -1 1 6.123234e-17 -635.0803 1219.9526)">
			<stop  offset="0" style="stop-color:#EBEFF0"/>
			<stop  offset="1" style="stop-color:#E6E8F1"/>
		</linearGradient>
		<circle class="st27" cx="133.65" cy="303.13" r="4.16"/>
		<linearGradient id="SVGID_27_" gradientUnits="userSpaceOnUse" x1="676.1024" y1="492.3115" x2="668.2338" y2="506.9308">
			<stop  offset="0" style="stop-color:#EBEFF0"/>
			<stop  offset="1" style="stop-color:#E6E8F1"/>
		</linearGradient>
		<path class="st28" d="M681.86,495.4c0,4.1-3.32,7.42-7.42,7.42s-7.42-3.32-7.42-7.42s3.32-7.42,7.42-7.42
			C678.54,487.98,681.86,491.3,681.86,495.4z"/>
		
			<linearGradient id="SVGID_28_" gradientUnits="userSpaceOnUse" x1="1025.0388" y1="778.7997" x2="1014.3036" y2="798.7458" gradientTransform="matrix(6.123234e-17 -1 1 6.123234e-17 -635.0803 1219.9526)">
			<stop  offset="0" style="stop-color:#EBEFF0"/>
			<stop  offset="1" style="stop-color:#E6E8F1"/>
		</linearGradient>
		<circle class="st29" cx="147.93" cy="197.18" r="10.12"/>
		<linearGradient id="SVGID_29_" gradientUnits="userSpaceOnUse" x1="981.1421" y1="492.312" x2="973.2736" y2="506.9312">
			<stop  offset="0" style="stop-color:#EBEFF0"/>
			<stop  offset="1" style="stop-color:#E6E8F1"/>
		</linearGradient>
		<path class="st30" d="M986.9,495.4c0,4.1-3.32,7.42-7.42,7.42s-7.42-3.32-7.42-7.42s3.32-7.42,7.42-7.42
			C983.58,487.98,986.9,491.3,986.9,495.4z"/>
		<linearGradient id="SVGID_30_" gradientUnits="userSpaceOnUse" x1="839.7231" y1="857.3292" x2="828.1979" y2="878.743">
			<stop  offset="0" style="stop-color:#EBEFF0"/>
			<stop  offset="1" style="stop-color:#E6E8F1"/>
		</linearGradient>
		<circle class="st31" cx="837.29" cy="861.85" r="10.87"/>
		<linearGradient id="SVGID_31_" gradientUnits="userSpaceOnUse" x1="722.09" y1="820.55" x2="722.09" y2="820.55">
			<stop  offset="0" style="stop-color:#EBEFF0"/>
			<stop  offset="1" style="stop-color:#E6E8F1"/>
		</linearGradient>
		<path class="st32" d="M722.09,820.55L722.09,820.55L722.09,820.55z"/>
		<linearGradient id="SVGID_32_" gradientUnits="userSpaceOnUse" x1="1213.6505" y1="827.1199" x2="1209.6167" y2="834.6147">
			<stop  offset="0" style="stop-color:#EBEFF0"/>
			<stop  offset="1" style="stop-color:#E6E8F1"/>
		</linearGradient>
		<circle class="st33" cx="1212.8" cy="828.7" r="3.8"/>
		<linearGradient id="SVGID_33_" gradientUnits="userSpaceOnUse" x1="1179.1564" y1="520.783" x2="1173.6195" y2="531.0704">
			<stop  offset="0" style="stop-color:#EBEFF0"/>
			<stop  offset="1" style="stop-color:#E6E8F1"/>
		</linearGradient>
		<path class="st34" d="M1183.21,522.95c0,2.88-2.34,5.22-5.22,5.22s-5.22-2.34-5.22-5.22c0-2.88,2.34-5.22,5.22-5.22
			C1180.87,517.73,1183.21,520.07,1183.21,522.95z"/>
		<linearGradient id="SVGID_34_" gradientUnits="userSpaceOnUse" x1="1181.1815" y1="1012.1895" x2="1178.4131" y2="1017.3333">
			<stop  offset="0" style="stop-color:#EBEFF0"/>
			<stop  offset="1" style="stop-color:#E6E8F1"/>
		</linearGradient>
		<path class="st35" d="M1183.21,1013.27c0,1.44-1.17,2.61-2.61,2.61s-2.61-1.17-2.61-2.61s1.17-2.61,2.61-2.61
			C1182.04,1010.66,1183.21,1011.83,1183.21,1013.27z"/>
		<linearGradient id="SVGID_35_" gradientUnits="userSpaceOnUse" x1="895.2973" y1="1030.6576" x2="889.6192" y2="1041.2075">
			<stop  offset="0" style="stop-color:#EBEFF0"/>
			<stop  offset="1" style="stop-color:#E6E8F1"/>
		</linearGradient>
		<path class="st36" d="M899.45,1032.88c0,2.96-2.4,5.35-5.35,5.35c-2.96,0-5.35-2.4-5.35-5.35s2.4-5.35,5.35-5.35
			S899.45,1029.92,899.45,1032.88z"/>
		<linearGradient id="SVGID_36_" gradientUnits="userSpaceOnUse" x1="372.4867" y1="492.122" x2="349.8113" y2="534.2527">
			<stop  offset="0" style="stop-color:#EBEFF0"/>
			<stop  offset="1" style="stop-color:#E6E8F1"/>
		</linearGradient>
		<polygon class="st37" points="369.13,477.49 375.85,491.1 390.87,493.28 380,503.88 382.57,518.84 369.13,511.77 355.7,518.84 
			358.26,503.88 347.4,493.28 362.42,491.1 		"/>
		<linearGradient id="SVGID_37_" gradientUnits="userSpaceOnUse" x1="562.0367" y1="763.5577" x2="531.4706" y2="820.349">
			<stop  offset="0" style="stop-color:#EBEFF0"/>
			<stop  offset="1" style="stop-color:#E6E8F1"/>
		</linearGradient>
		<polygon class="st38" points="557.52,743.84 566.57,762.18 586.82,765.12 572.17,779.41 575.63,799.57 557.52,790.05 
			539.41,799.57 542.87,779.41 528.22,765.12 548.46,762.18 		"/>
		<linearGradient id="SVGID_38_" gradientUnits="userSpaceOnUse" x1="314.714" y1="794.4145" x2="300.5075" y2="820.8098">
			<stop  offset="0" style="stop-color:#EBEFF0"/>
			<stop  offset="1" style="stop-color:#E6E8F1"/>
		</linearGradient>
		<polygon class="st39" points="312.62,785.25 316.83,793.78 326.24,795.14 319.43,801.78 321.03,811.15 312.62,806.73 
			304.2,811.15 305.81,801.78 299,795.14 308.41,793.78 		"/>
		<linearGradient id="SVGID_39_" gradientUnits="userSpaceOnUse" x1="360.693" y1="657.8196" x2="349.1677" y2="679.2333">
			<stop  offset="0" style="stop-color:#EBEFF0"/>
			<stop  offset="1" style="stop-color:#E6E8F1"/>
		</linearGradient>
		<circle class="st40" cx="358.26" cy="662.34" r="10.87"/>
		<linearGradient id="SVGID_40_" gradientUnits="userSpaceOnUse" x1="416.2672" y1="831.1479" x2="410.589" y2="841.6979">
			<stop  offset="0" style="stop-color:#EBEFF0"/>
			<stop  offset="1" style="stop-color:#E6E8F1"/>
		</linearGradient>
		<path class="st41" d="M420.42,833.37c0,2.96-2.4,5.35-5.35,5.35c-2.96,0-5.35-2.4-5.35-5.35s2.4-5.35,5.35-5.35
			S420.42,830.41,420.42,833.37z"/>
		<linearGradient id="SVGID_41_" gradientUnits="userSpaceOnUse" x1="1564.109" y1="603.8469" x2="1560.2672" y2="610.9851">
			<stop  offset="0" style="stop-color:#EBEFF0"/>
			<stop  offset="1" style="stop-color:#E6E8F1"/>
		</linearGradient>
		<path class="st42" d="M1559.68,605.35c0,2,1.62,3.62,3.62,3.62s3.62-1.62,3.62-3.62s-1.62-3.62-3.62-3.62
			S1559.68,603.35,1559.68,605.35z"/>
		<linearGradient id="SVGID_42_" gradientUnits="userSpaceOnUse" x1="1418.3409" y1="135.4329" x2="1412.5093" y2="146.2681">
			<stop  offset="0" style="stop-color:#EBEFF0"/>
			<stop  offset="1" style="stop-color:#E6E8F1"/>
		</linearGradient>
		<path class="st43" d="M1422.61,137.72c0,3.04-2.46,5.5-5.5,5.5s-5.5-2.46-5.5-5.5s2.46-5.5,5.5-5.5S1422.61,134.68,1422.61,137.72
			z"/>
		<linearGradient id="SVGID_43_" gradientUnits="userSpaceOnUse" x1="1694.9457" y1="179.325" x2="1685.7255" y2="196.456">
			<stop  offset="0" style="stop-color:#EBEFF0"/>
			<stop  offset="1" style="stop-color:#E6E8F1"/>
		</linearGradient>
		<circle class="st44" cx="1693" cy="182.94" r="8.69"/>
		<linearGradient id="SVGID_44_" gradientUnits="userSpaceOnUse" x1="1751.1305" y1="449.4593" x2="1743.4469" y2="463.7352">
			<stop  offset="0" style="stop-color:#EBEFF0"/>
			<stop  offset="1" style="stop-color:#E6E8F1"/>
		</linearGradient>
		<path class="st45" d="M1756.76,452.47c0,4-3.24,7.25-7.25,7.25c-4,0-7.25-3.24-7.25-7.25c0-4,3.24-7.25,7.25-7.25
			C1753.51,445.23,1756.76,448.47,1756.76,452.47z"/>
		<linearGradient id="SVGID_45_" gradientUnits="userSpaceOnUse" x1="1441.9309" y1="941.7415" x2="1430.4768" y2="963.0231">
			<stop  offset="0" style="stop-color:#EBEFF0"/>
			<stop  offset="1" style="stop-color:#E6E8F1"/>
		</linearGradient>
		<polygon class="st46" points="1440.24,934.35 1443.63,941.23 1451.22,942.33 1445.73,947.68 1447.02,955.24 1440.24,951.67 
			1433.45,955.24 1434.75,947.68 1429.26,942.33 1436.85,941.23 		"/>
		<linearGradient id="SVGID_46_" gradientUnits="userSpaceOnUse" x1="1489.6793" y1="866.0815" x2="1481.9957" y2="880.3574">
			<stop  offset="0" style="stop-color:#EBEFF0"/>
			<stop  offset="1" style="stop-color:#E6E8F1"/>
		</linearGradient>
		<path class="st47" d="M1495.31,869.09c0,4-3.24,7.25-7.25,7.25c-4,0-7.25-3.24-7.25-7.25c0-4,3.24-7.25,7.25-7.25
			C1492.06,861.85,1495.31,865.09,1495.31,869.09z"/>
		<linearGradient id="SVGID_47_" gradientUnits="userSpaceOnUse" x1="1729.6337" y1="769.8937" x2="1724.2551" y2="779.8868">
			<stop  offset="0" style="stop-color:#EBEFF0"/>
			<stop  offset="1" style="stop-color:#E6E8F1"/>
		</linearGradient>
		<path class="st48" d="M1733.57,772c0,2.8-2.27,5.07-5.07,5.07c-2.8,0-5.07-2.27-5.07-5.07s2.27-5.07,5.07-5.07
			S1733.57,769.2,1733.57,772z"/>
		<linearGradient id="SVGID_48_" gradientUnits="userSpaceOnUse" x1="1846.2834" y1="947.6099" x2="1814.7521" y2="1006.1948">
			<stop  offset="0" style="stop-color:#EBEFF0"/>
			<stop  offset="1" style="stop-color:#E6E8F1"/>
		</linearGradient>
		<polygon class="st49" points="1841.62,927.27 1850.96,946.19 1871.85,949.23 1856.74,963.96 1860.3,984.76 1841.62,974.94 
			1822.94,984.76 1826.51,963.96 1811.4,949.23 1832.28,946.19 		"/>
		<linearGradient id="SVGID_49_" gradientUnits="userSpaceOnUse" x1="1846.5632" y1="335.4437" x2="1840.8125" y2="346.1286">
			<stop  offset="0" style="stop-color:#EBEFF0"/>
			<stop  offset="1" style="stop-color:#E6E8F1"/>
		</linearGradient>
		<polygon class="st50" points="1845.71,331.73 1847.41,335.18 1851.22,335.74 1848.47,338.42 1849.12,342.22 1845.71,340.43 
			1842.3,342.22 1842.95,338.42 1840.2,335.74 1844.01,335.18 		"/>
		<linearGradient id="SVGID_50_" gradientUnits="userSpaceOnUse" x1="1828.2412" y1="682.2731" x2="1811.7375" y2="712.9367">
			<stop  offset="0" style="stop-color:#EBEFF0"/>
			<stop  offset="1" style="stop-color:#E6E8F1"/>
		</linearGradient>
		<polygon class="st51" points="1825.8,671.63 1830.69,681.53 1841.62,683.12 1833.71,690.83 1835.58,701.72 1825.8,696.58 
			1816.03,701.72 1817.89,690.83 1809.98,683.12 1820.91,681.53 		"/>
		<linearGradient id="SVGID_51_" gradientUnits="userSpaceOnUse" x1="1873.6541" y1="122.6631" x2="1868.2756" y2="132.6562">
			<stop  offset="0" style="stop-color:#EBEFF0"/>
			<stop  offset="1" style="stop-color:#E6E8F1"/>
		</linearGradient>
		<path class="st52" d="M1877.59,124.77c0,2.8-2.27,5.07-5.07,5.07c-2.8,0-5.07-2.27-5.07-5.07s2.27-5.07,5.07-5.07
			S1877.59,121.97,1877.59,124.77z"/>
		<linearGradient id="SVGID_52_" gradientUnits="userSpaceOnUse" x1="1330.6147" y1="675.1807" x2="1326.9408" y2="682.0067">
			<stop  offset="0" style="stop-color:#EBEFF0"/>
			<stop  offset="1" style="stop-color:#E6E8F1"/>
		</linearGradient>
		<path class="st53" d="M1333.3,676.62c0,1.91-1.55,3.46-3.46,3.46c-1.91,0-3.46-1.55-3.46-3.46c0-1.91,1.55-3.46,3.46-3.46
			C1331.75,673.15,1333.3,674.71,1333.3,676.62z"/>
		<linearGradient id="SVGID_53_" gradientUnits="userSpaceOnUse" x1="493.8809" y1="963.3488" x2="477.3772" y2="994.0125">
			<stop  offset="0" style="stop-color:#EBEFF0"/>
			<stop  offset="1" style="stop-color:#E6E8F1"/>
		</linearGradient>
		<polygon class="st54" points="491.44,952.7 496.33,962.61 507.26,964.2 499.35,971.91 501.22,982.79 491.44,977.65 481.67,982.79 
			483.53,971.91 475.62,964.2 486.55,962.61 		"/>
		<linearGradient id="SVGID_54_" gradientUnits="userSpaceOnUse" x1="407.2937" y1="984.8224" x2="403.6198" y2="991.6484">
			<stop  offset="0" style="stop-color:#EBEFF0"/>
			<stop  offset="1" style="stop-color:#E6E8F1"/>
		</linearGradient>
		<path class="st55" d="M409.98,986.26c0,1.91-1.55,3.46-3.46,3.46s-3.46-1.55-3.46-3.46c0-1.91,1.55-3.46,3.46-3.46
			C408.43,982.79,409.98,984.35,409.98,986.26z"/>
		<linearGradient id="SVGID_55_" gradientUnits="userSpaceOnUse" x1="1177.556" y1="324.3401" x2="1173.4034" y2="332.0556">
			<stop  offset="0" style="stop-color:#EBEFF0"/>
			<stop  offset="1" style="stop-color:#E6E8F1"/>
		</linearGradient>
		<path class="st56" d="M1180.6,325.97c0,2.16-1.75,3.92-3.92,3.92c-2.16,0-3.92-1.75-3.92-3.92s1.75-3.92,3.92-3.92
			C1178.84,322.05,1180.6,323.81,1180.6,325.97z"/>
		<linearGradient id="SVGID_56_" gradientUnits="userSpaceOnUse" x1="1015.1631" y1="269.8827" x2="1006.7798" y2="285.4586">
			<stop  offset="0" style="stop-color:#EBEFF0"/>
			<stop  offset="1" style="stop-color:#E6E8F1"/>
		</linearGradient>
		<polygon class="st57" points="1013.93,264.48 1016.41,269.51 1021.96,270.31 1017.95,274.23 1018.89,279.76 1013.93,277.15 
			1008.96,279.76 1009.91,274.23 1005.89,270.31 1011.44,269.51 		"/>
		<linearGradient id="SVGID_57_" gradientUnits="userSpaceOnUse" x1="989.6723" y1="77.1566" x2="977.3045" y2="100.1356">
			<stop  offset="0" style="stop-color:#EBEFF0"/>
			<stop  offset="1" style="stop-color:#E6E8F1"/>
		</linearGradient>
		<polygon class="st58" points="987.84,69.18 991.51,76.6 999.7,77.79 993.77,83.57 995.17,91.73 987.84,87.88 980.52,91.73 
			981.92,83.57 975.99,77.79 984.18,76.6 		"/>
		<linearGradient id="SVGID_58_" gradientUnits="userSpaceOnUse" x1="904.235" y1="291.1521" x2="900.0825" y2="298.8675">
			<stop  offset="0" style="stop-color:#EBEFF0"/>
			<stop  offset="1" style="stop-color:#E6E8F1"/>
		</linearGradient>
		<path class="st59" d="M907.28,292.78c0,2.16-1.75,3.92-3.92,3.92c-2.16,0-3.92-1.75-3.92-3.92s1.75-3.92,3.92-3.92
			C905.53,288.87,907.28,290.62,907.28,292.78z"/>
		
			<linearGradient id="SVGID_59_" gradientUnits="userSpaceOnUse" x1="187.8782" y1="819.509" x2="179.495" y2="835.0849" gradientTransform="matrix(-0.9416 -0.3368 0.3368 -0.9416 -6.5528 1656.7622)">
			<stop  offset="0" style="stop-color:#EBEFF0"/>
			<stop  offset="1" style="stop-color:#E6E8F1"/>
		</linearGradient>
		<polygon class="st60" points="91.89,827.35 91.24,821.78 86.29,819.15 91.39,816.81 92.36,811.29 96.16,815.42 101.71,814.63 
			98.96,819.52 101.42,824.56 95.92,823.45 		"/>
		
			<linearGradient id="SVGID_60_" gradientUnits="userSpaceOnUse" x1="162.3858" y1="626.7818" x2="150.018" y2="649.7609" gradientTransform="matrix(-0.9416 -0.3368 0.3368 -0.9416 -6.5528 1656.7622)">
			<stop  offset="0" style="stop-color:#EBEFF0"/>
			<stop  offset="1" style="stop-color:#E6E8F1"/>
		</linearGradient>
		<polygon class="st61" points="50.67,1020.03 49.72,1011.8 42.41,1007.92 49.94,1004.48 51.37,996.33 56.97,1002.42 65.16,1001.26 
			61.1,1008.47 64.73,1015.91 56.62,1014.27 		"/>
		
			<linearGradient id="SVGID_61_" gradientUnits="userSpaceOnUse" x1="78.5558" y1="1037.2241" x2="73.0189" y2="1047.5115" gradientTransform="matrix(-0.9416 -0.3368 0.3368 -0.9416 -6.5528 1656.7622)">
			<stop  offset="0" style="stop-color:#EBEFF0"/>
			<stop  offset="1" style="stop-color:#E6E8F1"/>
		</linearGradient>
		<path class="st62" d="M265.72,650.26c0.97-2.72,3.96-4.13,6.67-3.16c2.72,0.97,4.13,3.96,3.16,6.67
			c-0.97,2.72-3.96,4.13-6.67,3.16S264.75,652.98,265.72,650.26z"/>
		
			<linearGradient id="SVGID_62_" gradientUnits="userSpaceOnUse" x1="76.9491" y1="840.7776" x2="72.7965" y2="848.4932" gradientTransform="matrix(-0.9416 -0.3368 0.3368 -0.9416 -6.5528 1656.7622)">
			<stop  offset="0" style="stop-color:#EBEFF0"/>
			<stop  offset="1" style="stop-color:#E6E8F1"/>
		</linearGradient>
		<path class="st63" d="M201.84,836.62c0.73-2.04,2.97-3.1,5.01-2.37s3.1,2.97,2.37,5.01s-2.97,3.1-5.01,2.37
			S201.11,838.65,201.84,836.62z"/>
	</g>
</g>
</svg>
