<svg id="Capa_1" data-name="Capa 1" xmlns="http://www.w3.org/2000/svg" xmlns:xlink="http://www.w3.org/1999/xlink" viewBox="0 0 1920 1080"><defs><style>.cls-1{opacity:0.12;}.cls-2{fill:url(#Degradado_sin_nombre_62);}.cls-3{fill:url(#Degradado_sin_nombre_62-2);}.cls-4{fill:url(#Degradado_sin_nombre_62-3);}.cls-5{fill:url(#Degradado_sin_nombre_62-4);}.cls-6{fill:url(#Degradado_sin_nombre_62-5);}.cls-7{fill:url(#Degradado_sin_nombre_62-6);}.cls-8{fill:url(#Degradado_sin_nombre_62-7);}.cls-9{fill:url(#Degradado_sin_nombre_62-8);}.cls-10{fill:url(#Degradado_sin_nombre_62-9);}.cls-11{fill:url(#Degradado_sin_nombre_62-10);}.cls-12{fill:url(#Degradado_sin_nombre_62-11);}.cls-13{fill:url(#Degradado_sin_nombre_62-12);}.cls-14{fill:url(#Degradado_sin_nombre_62-13);}.cls-15{fill:url(#Degradado_sin_nombre_62-14);}.cls-16{fill:url(#Degradado_sin_nombre_62-15);}.cls-17{fill:url(#Degradado_sin_nombre_62-16);}.cls-18{fill:url(#Degradado_sin_nombre_62-17);}.cls-19{fill:url(#Degradado_sin_nombre_62-18);}.cls-20{fill:url(#Degradado_sin_nombre_62-19);}.cls-21{fill:url(#Degradado_sin_nombre_62-20);}.cls-22{fill:url(#Degradado_sin_nombre_62-21);}.cls-23{fill:url(#Degradado_sin_nombre_62-22);}.cls-24{fill:url(#Degradado_sin_nombre_62-23);}.cls-25{fill:url(#Degradado_sin_nombre_62-24);}.cls-26{fill:url(#Degradado_sin_nombre_62-25);}.cls-27{fill:url(#Degradado_sin_nombre_62-26);}.cls-28{fill:url(#Degradado_sin_nombre_62-27);}.cls-29{fill:url(#Degradado_sin_nombre_62-28);}.cls-30{fill:url(#Degradado_sin_nombre_62-29);}.cls-31{fill:url(#Degradado_sin_nombre_62-30);}.cls-32{fill:url(#Degradado_sin_nombre_62-31);}.cls-33{fill:url(#Degradado_sin_nombre_62-32);}.cls-34{fill:url(#Degradado_sin_nombre_62-33);}.cls-35{fill:url(#Degradado_sin_nombre_62-34);}.cls-36{fill:url(#Degradado_sin_nombre_62-35);}.cls-37{fill:url(#Degradado_sin_nombre_62-36);}.cls-38{fill:url(#Degradado_sin_nombre_62-37);}.cls-39{fill:url(#Degradado_sin_nombre_62-38);}.cls-40{fill:url(#Degradado_sin_nombre_62-39);}.cls-41{fill:url(#Degradado_sin_nombre_62-40);}.cls-42{fill:url(#Degradado_sin_nombre_62-41);}.cls-43{fill:url(#Degradado_sin_nombre_62-42);}.cls-44{fill:url(#Degradado_sin_nombre_62-43);}.cls-45{fill:url(#Degradado_sin_nombre_62-44);}.cls-46{fill:url(#Degradado_sin_nombre_62-45);}.cls-47{fill:url(#Degradado_sin_nombre_62-46);}.cls-48{fill:url(#Degradado_sin_nombre_62-47);}.cls-49{fill:url(#Degradado_sin_nombre_62-48);}.cls-50{fill:url(#Degradado_sin_nombre_62-49);}.cls-51{fill:url(#Degradado_sin_nombre_62-50);}.cls-52{fill:url(#Degradado_sin_nombre_62-51);}.cls-53{fill:url(#Degradado_sin_nombre_62-52);}.cls-54{fill:url(#Degradado_sin_nombre_62-53);}.cls-55{fill:url(#Degradado_sin_nombre_62-54);}.cls-56{fill:url(#Degradado_sin_nombre_62-55);}.cls-57{fill:url(#Degradado_sin_nombre_62-56);}.cls-58{fill:url(#Degradado_sin_nombre_62-57);}.cls-59{fill:url(#Degradado_sin_nombre_62-58);}.cls-60{fill:url(#Degradado_sin_nombre_62-59);}.cls-61{fill:url(#Degradado_sin_nombre_62-60);}</style><linearGradient id="Degradado_sin_nombre_62" x1="375.11" y1="68.73" x2="340.59" y2="132.87" gradientUnits="userSpaceOnUse"><stop offset="0" stop-color="#ebeff0"/><stop offset="1" stop-color="#e6e8f1"/></linearGradient><linearGradient id="Degradado_sin_nombre_62-2" x1="851.57" y1="691.38" x2="828.9" y2="733.51" xlink:href="#Degradado_sin_nombre_62"/><linearGradient id="Degradado_sin_nombre_62-3" x1="282.97" y1="172.1" x2="273.77" y2="189.2" xlink:href="#Degradado_sin_nombre_62"/><linearGradient id="Degradado_sin_nombre_62-4" x1="645.15" y1="344.15" x2="626.85" y2="378.15" xlink:href="#Degradado_sin_nombre_62"/><linearGradient id="Degradado_sin_nombre_62-5" x1="769.2" y1="360.47" x2="754.77" y2="387.28" xlink:href="#Degradado_sin_nombre_62"/><linearGradient id="Degradado_sin_nombre_62-6" x1="755.45" y1="710.54" x2="736.27" y2="746.18" gradientTransform="translate(-635.08 1221.95) rotate(-90)" xlink:href="#Degradado_sin_nombre_62"/><linearGradient id="Degradado_sin_nombre_62-7" x1="1140.37" y1="803.18" x2="1124.89" y2="831.94" gradientTransform="translate(-635.08 1221.95) rotate(-90)" xlink:href="#Degradado_sin_nombre_62"/><linearGradient id="Degradado_sin_nombre_62-8" x1="1432.04" y1="42.69" x2="1413.62" y2="76.9" xlink:href="#Degradado_sin_nombre_62"/><linearGradient id="Degradado_sin_nombre_62-9" x1="1627.54" y1="79.23" x2="1609.99" y2="111.84" xlink:href="#Degradado_sin_nombre_62"/><linearGradient id="Degradado_sin_nombre_62-10" x1="1288.54" y1="302.82" x2="1280.16" y2="318.4" xlink:href="#Degradado_sin_nombre_62"/><linearGradient id="Degradado_sin_nombre_62-11" x1="1263.05" y1="110.09" x2="1250.68" y2="133.07" xlink:href="#Degradado_sin_nombre_62"/><linearGradient id="Degradado_sin_nombre_62-12" x1="1629.6" y1="700.18" x2="1598.07" y2="758.76" xlink:href="#Degradado_sin_nombre_62"/><linearGradient id="Degradado_sin_nombre_62-13" x1="1041.12" y1="962.82" x2="1010.56" y2="1019.61" xlink:href="#Degradado_sin_nombre_62"/><linearGradient id="Degradado_sin_nombre_62-14" x1="1118.09" y1="716.71" x2="1096.19" y2="757.4" xlink:href="#Degradado_sin_nombre_62"/><linearGradient id="Degradado_sin_nombre_62-15" x1="793.8" y1="993.67" x2="779.59" y2="1020.07" xlink:href="#Degradado_sin_nombre_62"/><linearGradient id="Degradado_sin_nombre_62-16" x1="1281" y1="1034.85" x2="1269.26" y2="1056.68" xlink:href="#Degradado_sin_nombre_62"/><linearGradient id="Degradado_sin_nombre_62-17" x1="1702.6" y1="982.42" x2="1696.85" y2="993.11" xlink:href="#Degradado_sin_nombre_62"/><linearGradient id="Degradado_sin_nombre_62-18" x1="1703.44" y1="524.87" x2="1691.99" y2="546.15" xlink:href="#Degradado_sin_nombre_62"/><linearGradient id="Degradado_sin_nombre_62-19" x1="1417.27" y1="653.46" x2="1400.76" y2="684.12" xlink:href="#Degradado_sin_nombre_62"/><linearGradient id="Degradado_sin_nombre_62-20" x1="252.45" y1="87.63" x2="250.72" y2="90.85" xlink:href="#Degradado_sin_nombre_62"/><linearGradient id="Degradado_sin_nombre_62-21" x1="501.82" y1="82.22" x2="494.02" y2="96.71" xlink:href="#Degradado_sin_nombre_62"/><linearGradient id="Degradado_sin_nombre_62-22" x1="190.25" y1="292.88" x2="186.86" y2="299.19" xlink:href="#Degradado_sin_nombre_62"/><linearGradient id="Degradado_sin_nombre_62-23" x1="475.56" y1="198.54" x2="469.8" y2="209.25" xlink:href="#Degradado_sin_nombre_62"/><linearGradient id="Degradado_sin_nombre_62-24" x1="637.43" y1="196.95" x2="634.55" y2="202.31" xlink:href="#Degradado_sin_nombre_62"/><linearGradient id="Degradado_sin_nombre_62-25" x1="920" y1="767.05" x2="915.59" y2="775.25" gradientTransform="translate(-635.08 1221.95) rotate(-90)" xlink:href="#Degradado_sin_nombre_62"/><linearGradient id="Degradado_sin_nombre_62-26" x1="676.16" y1="492.06" x2="668.29" y2="506.68" xlink:href="#Degradado_sin_nombre_62"/><linearGradient id="Degradado_sin_nombre_62-27" x1="1027.29" y1="778.86" x2="1016.55" y2="798.8" gradientTransform="translate(-635.08 1221.95) rotate(-90)" xlink:href="#Degradado_sin_nombre_62"/><linearGradient id="Degradado_sin_nombre_62-28" x1="981.2" y1="492.06" x2="973.33" y2="506.68" xlink:href="#Degradado_sin_nombre_62"/><linearGradient id="Degradado_sin_nombre_62-29" x1="839.78" y1="857.08" x2="828.25" y2="878.49" xlink:href="#Degradado_sin_nombre_62"/><linearGradient id="Degradado_sin_nombre_62-30" x1="1213.71" y1="826.87" x2="1209.67" y2="834.36" xlink:href="#Degradado_sin_nombre_62"/><linearGradient id="Degradado_sin_nombre_62-31" x1="1179.21" y1="520.53" x2="1173.68" y2="530.82" xlink:href="#Degradado_sin_nombre_62"/><linearGradient id="Degradado_sin_nombre_62-32" x1="1181.24" y1="1011.94" x2="1178.47" y2="1017.08" xlink:href="#Degradado_sin_nombre_62"/><linearGradient id="Degradado_sin_nombre_62-33" x1="895.35" y1="1030.41" x2="889.67" y2="1040.96" xlink:href="#Degradado_sin_nombre_62"/><linearGradient id="Degradado_sin_nombre_62-34" x1="372.54" y1="491.87" x2="349.87" y2="534" xlink:href="#Degradado_sin_nombre_62"/><linearGradient id="Degradado_sin_nombre_62-35" x1="562.09" y1="763.31" x2="531.53" y2="820.1" xlink:href="#Degradado_sin_nombre_62"/><linearGradient id="Degradado_sin_nombre_62-36" x1="314.77" y1="794.16" x2="300.56" y2="820.56" xlink:href="#Degradado_sin_nombre_62"/><linearGradient id="Degradado_sin_nombre_62-37" x1="360.75" y1="657.57" x2="349.22" y2="678.98" xlink:href="#Degradado_sin_nombre_62"/><linearGradient id="Degradado_sin_nombre_62-38" x1="416.32" y1="830.9" x2="410.64" y2="841.45" xlink:href="#Degradado_sin_nombre_62"/><linearGradient id="Degradado_sin_nombre_62-39" x1="1564.16" y1="603.6" x2="1560.32" y2="610.74" xlink:href="#Degradado_sin_nombre_62"/><linearGradient id="Degradado_sin_nombre_62-40" x1="1418.4" y1="135.18" x2="1412.56" y2="146.02" xlink:href="#Degradado_sin_nombre_62"/><linearGradient id="Degradado_sin_nombre_62-41" x1="1695" y1="179.08" x2="1685.78" y2="196.21" xlink:href="#Degradado_sin_nombre_62"/><linearGradient id="Degradado_sin_nombre_62-42" x1="1751.19" y1="449.21" x2="1743.5" y2="463.49" xlink:href="#Degradado_sin_nombre_62"/><linearGradient id="Degradado_sin_nombre_62-43" x1="1441.99" y1="941.49" x2="1430.53" y2="962.77" xlink:href="#Degradado_sin_nombre_62"/><linearGradient id="Degradado_sin_nombre_62-44" x1="1489.73" y1="865.83" x2="1482.05" y2="880.11" xlink:href="#Degradado_sin_nombre_62"/><linearGradient id="Degradado_sin_nombre_62-45" x1="1729.69" y1="769.64" x2="1724.31" y2="779.64" xlink:href="#Degradado_sin_nombre_62"/><linearGradient id="Degradado_sin_nombre_62-46" x1="1846.34" y1="947.36" x2="1814.81" y2="1005.94" xlink:href="#Degradado_sin_nombre_62"/><linearGradient id="Degradado_sin_nombre_62-47" x1="1846.62" y1="335.19" x2="1840.87" y2="345.88" xlink:href="#Degradado_sin_nombre_62"/><linearGradient id="Degradado_sin_nombre_62-48" x1="1828.3" y1="682.02" x2="1811.79" y2="712.69" xlink:href="#Degradado_sin_nombre_62"/><linearGradient id="Degradado_sin_nombre_62-49" x1="1873.71" y1="122.41" x2="1868.33" y2="132.41" xlink:href="#Degradado_sin_nombre_62"/><linearGradient id="Degradado_sin_nombre_62-50" x1="1330.67" y1="674.93" x2="1327" y2="681.76" xlink:href="#Degradado_sin_nombre_62"/><linearGradient id="Degradado_sin_nombre_62-51" x1="493.94" y1="963.1" x2="477.43" y2="993.76" xlink:href="#Degradado_sin_nombre_62"/><linearGradient id="Degradado_sin_nombre_62-52" x1="407.35" y1="984.57" x2="403.68" y2="991.4" xlink:href="#Degradado_sin_nombre_62"/><linearGradient id="Degradado_sin_nombre_62-53" x1="1177.61" y1="324.09" x2="1173.46" y2="331.81" xlink:href="#Degradado_sin_nombre_62"/><linearGradient id="Degradado_sin_nombre_62-54" x1="1015.22" y1="269.63" x2="1006.84" y2="285.21" xlink:href="#Degradado_sin_nombre_62"/><linearGradient id="Degradado_sin_nombre_62-55" x1="989.73" y1="76.91" x2="977.36" y2="99.89" xlink:href="#Degradado_sin_nombre_62"/><linearGradient id="Degradado_sin_nombre_62-56" x1="904.29" y1="290.9" x2="900.14" y2="298.62" xlink:href="#Degradado_sin_nombre_62"/><linearGradient id="Degradado_sin_nombre_62-57" x1="190.19" y1="821.37" x2="181.81" y2="836.94" gradientTransform="translate(-4.95 1659.04) rotate(-160.32)" xlink:href="#Degradado_sin_nombre_62"/><linearGradient id="Degradado_sin_nombre_62-58" x1="164.7" y1="628.64" x2="152.33" y2="651.62" gradientTransform="translate(-4.95 1659.04) rotate(-160.32)" xlink:href="#Degradado_sin_nombre_62"/><linearGradient id="Degradado_sin_nombre_62-59" x1="80.87" y1="1039.08" x2="75.33" y2="1049.37" gradientTransform="translate(-4.95 1659.04) rotate(-160.32)" xlink:href="#Degradado_sin_nombre_62"/><linearGradient id="Degradado_sin_nombre_62-60" x1="79.26" y1="842.64" x2="75.11" y2="850.35" gradientTransform="translate(-4.95 1659.04) rotate(-160.32)" xlink:href="#Degradado_sin_nombre_62"/></defs><g class="cls-1"><polygon class="cls-2" points="370.01 46.45 380.24 67.17 403.11 70.5 386.56 86.63 390.47 109.4 370.01 98.65 349.56 109.4 353.47 86.63 336.92 70.5 359.79 67.17 370.01 46.45"/><polygon class="cls-3" points="848.22 676.75 854.94 690.36 869.96 692.54 859.09 703.14 861.66 718.1 848.22 711.03 834.79 718.1 837.35 703.14 826.49 692.54 841.51 690.36 848.22 676.75"/><polygon class="cls-4" points="281.62 166.16 284.35 171.69 290.44 172.57 286.03 176.88 287.07 182.95 281.62 180.08 276.16 182.95 277.21 176.88 272.79 172.57 278.89 171.69 281.62 166.16"/><polygon class="cls-5" points="642.45 332.34 647.87 343.32 659.99 345.08 651.22 353.63 653.29 365.71 642.45 360.01 631.61 365.71 633.68 353.63 624.91 345.08 637.03 343.32 642.45 332.34"/><polygon class="cls-6" points="767.07 351.16 771.35 359.82 780.91 361.21 773.99 367.95 775.62 377.47 767.07 372.98 758.52 377.47 760.16 367.95 753.24 361.21 762.8 359.82 767.07 351.16"/><polygon class="cls-7" points="63.09 469.34 74.6 463.66 76.45 450.95 85.41 460.14 98.06 457.97 92.09 469.34 98.06 480.7 85.41 478.53 76.45 487.73 74.6 475.02 63.09 469.34"/><polygon class="cls-8" points="158.11 83.87 167.4 79.29 168.89 69.03 176.13 76.45 186.34 74.7 181.52 83.87 186.34 93.05 176.13 91.29 168.89 98.71 167.4 88.46 158.11 83.87"/><polygon class="cls-9" points="1429.32 30.81 1434.77 41.86 1446.97 43.63 1438.14 52.24 1440.23 64.38 1429.32 58.65 1418.41 64.38 1420.49 52.24 1411.67 43.63 1423.86 41.86 1429.32 30.81"/><polygon class="cls-10" points="1624.95 67.91 1630.15 78.44 1641.77 80.13 1633.36 88.33 1635.35 99.91 1624.95 94.44 1614.55 99.91 1616.54 88.33 1608.13 80.13 1619.75 78.44 1624.95 67.91"/><polygon class="cls-11" points="1287.31 297.41 1289.79 302.44 1295.34 303.25 1291.32 307.17 1292.27 312.7 1287.31 310.09 1282.34 312.7 1283.29 307.17 1279.27 303.25 1284.82 302.44 1287.31 297.41"/><polygon class="cls-12" points="1261.22 102.11 1264.88 109.54 1273.08 110.73 1267.15 116.5 1268.55 124.66 1261.22 120.81 1253.89 124.66 1255.29 116.5 1249.37 110.73 1257.56 109.54 1261.22 102.11"/><polygon class="cls-13" points="1624.95 679.83 1634.29 698.76 1655.18 701.79 1640.06 716.53 1643.63 737.33 1624.95 727.51 1606.27 737.33 1609.84 716.53 1594.72 701.79 1615.61 698.76 1624.95 679.83"/><polygon class="cls-14" points="1036.61 943.1 1045.66 961.44 1065.91 964.38 1051.26 978.66 1054.72 998.83 1036.61 989.31 1018.5 998.83 1021.96 978.66 1007.31 964.38 1027.55 961.44 1036.61 943.1"/><polygon class="cls-15" points="1114.86 702.58 1121.35 715.73 1135.85 717.84 1125.36 728.07 1127.83 742.51 1114.86 735.69 1101.89 742.51 1104.36 728.07 1093.87 717.84 1108.37 715.73 1114.86 702.58"/><polygon class="cls-16" points="791.71 984.51 795.92 993.04 805.33 994.4 798.52 1001.04 800.12 1010.41 791.71 1005.99 783.29 1010.41 784.9 1001.04 778.09 994.4 787.5 993.04 791.71 984.51"/><polygon class="cls-17" points="1279.27 1027.28 1282.75 1034.33 1290.53 1035.46 1284.9 1040.94 1286.23 1048.69 1279.27 1045.03 1272.31 1048.69 1273.64 1040.94 1268.01 1035.46 1275.79 1034.33 1279.27 1027.28"/><polygon class="cls-18" points="1701.75 978.71 1703.46 982.17 1707.27 982.72 1704.51 985.41 1705.16 989.2 1701.75 987.41 1698.35 989.2 1699 985.41 1696.24 982.72 1700.05 982.17 1701.75 978.71"/><polygon class="cls-19" points="1701.75 517.48 1705.15 524.36 1712.73 525.46 1707.24 530.81 1708.54 538.37 1701.75 534.8 1694.97 538.37 1696.26 530.81 1690.77 525.46 1698.36 524.36 1701.75 517.48"/><polygon class="cls-20" points="1414.83 642.81 1419.72 652.72 1430.65 654.31 1422.74 662.02 1424.61 672.9 1414.83 667.76 1405.05 672.9 1406.92 662.02 1399.01 654.31 1409.94 652.72 1414.83 642.81"/><circle class="cls-21" cx="252.09" cy="88.31" r="1.63"/><path class="cls-22" d="M507.53,85.28a7.35,7.35,0,1,1-7.35-7.35A7.35,7.35,0,0,1,507.53,85.28Z"/><circle class="cls-23" cx="189.54" cy="294.21" r="3.2"/><circle class="cls-24" cx="474.35" cy="200.8" r="5.43"/><circle class="cls-25" cx="636.83" cy="198.08" r="2.72"/><circle class="cls-26" cx="133.71" cy="302.88" r="4.16"/><path class="cls-27" d="M681.92,495.15a7.42,7.42,0,1,1-7.42-7.42A7.42,7.42,0,0,1,681.92,495.15Z"/><circle class="cls-28" cx="147.99" cy="196.93" r="10.12"/><path class="cls-29" d="M987,495.15a7.42,7.42,0,1,1-7.42-7.42A7.42,7.42,0,0,1,987,495.15Z"/><circle class="cls-30" cx="837.35" cy="861.6" r="10.87"/><circle class="cls-31" cx="1212.86" cy="828.45" r="3.8"/><path class="cls-32" d="M1183.27,522.7a5.22,5.22,0,1,1-5.22-5.22A5.22,5.22,0,0,1,1183.27,522.7Z"/><path class="cls-33" d="M1183.27,1013a2.61,2.61,0,1,1-2.61-2.61A2.61,2.61,0,0,1,1183.27,1013Z"/><path class="cls-34" d="M899.51,1032.63a5.35,5.35,0,1,1-5.35-5.35A5.35,5.35,0,0,1,899.51,1032.63Z"/><polygon class="cls-35" points="369.19 477.24 375.91 490.85 390.93 493.03 380.06 503.63 382.63 518.59 369.19 511.52 355.76 518.59 358.32 503.63 347.46 493.03 362.48 490.85 369.19 477.24"/><polygon class="cls-36" points="557.58 743.59 566.63 761.93 586.88 764.87 572.23 779.16 575.69 799.32 557.58 789.8 539.47 799.32 542.93 779.16 528.28 764.87 548.52 761.93 557.58 743.59"/><polygon class="cls-37" points="312.68 785 316.89 793.53 326.3 794.89 319.49 801.53 321.09 810.9 312.68 806.48 304.26 810.9 305.87 801.53 299.06 794.89 308.47 793.53 312.68 785"/><circle class="cls-38" cx="358.32" cy="662.09" r="10.87"/><path class="cls-39" d="M420.48,833.12a5.35,5.35,0,1,1-5.35-5.35A5.35,5.35,0,0,1,420.48,833.12Z"/><path class="cls-40" d="M1559.74,605.1a3.62,3.62,0,1,0,3.62-3.62A3.62,3.62,0,0,0,1559.74,605.1Z"/><path class="cls-41" d="M1422.67,137.47a5.5,5.5,0,1,1-5.5-5.5A5.5,5.5,0,0,1,1422.67,137.47Z"/><circle class="cls-42" cx="1693.06" cy="182.69" r="8.69"/><path class="cls-43" d="M1756.82,452.22a7.25,7.25,0,1,1-7.25-7.25A7.25,7.25,0,0,1,1756.82,452.22Z"/><polygon class="cls-44" points="1440.3 934.1 1443.69 940.98 1451.28 942.08 1445.79 947.43 1447.08 954.99 1440.3 951.42 1433.51 954.99 1434.81 947.43 1429.32 942.08 1436.91 940.98 1440.3 934.1"/><path class="cls-45" d="M1495.37,868.84a7.25,7.25,0,1,1-7.25-7.25A7.25,7.25,0,0,1,1495.37,868.84Z"/><path class="cls-46" d="M1733.63,771.75a5.07,5.07,0,1,1-5.07-5.07A5.07,5.07,0,0,1,1733.63,771.75Z"/><polygon class="cls-47" points="1841.68 927.02 1851.02 945.94 1871.91 948.98 1856.8 963.71 1860.36 984.51 1841.68 974.69 1823 984.51 1826.57 963.71 1811.46 948.98 1832.34 945.94 1841.68 927.02"/><polygon class="cls-48" points="1845.77 331.48 1847.47 334.93 1851.28 335.49 1848.53 338.17 1849.18 341.97 1845.77 340.18 1842.36 341.97 1843.01 338.17 1840.26 335.49 1844.07 334.93 1845.77 331.48"/><polygon class="cls-49" points="1825.86 671.38 1830.75 681.28 1841.68 682.87 1833.77 690.58 1835.64 701.47 1825.86 696.33 1816.09 701.47 1817.95 690.58 1810.04 682.87 1820.97 681.28 1825.86 671.38"/><path class="cls-50" d="M1877.65,124.52a5.07,5.07,0,1,1-5.07-5.07A5.07,5.07,0,0,1,1877.65,124.52Z"/><path class="cls-51" d="M1333.36,676.37a3.46,3.46,0,1,1-3.46-3.46A3.46,3.46,0,0,1,1333.36,676.37Z"/><polygon class="cls-52" points="491.5 952.45 496.39 962.36 507.32 963.95 499.41 971.66 501.28 982.54 491.5 977.4 481.73 982.54 483.59 971.66 475.68 963.95 486.61 962.36 491.5 952.45"/><path class="cls-53" d="M410,986a3.46,3.46,0,1,1-3.46-3.46A3.46,3.46,0,0,1,410,986Z"/><path class="cls-54" d="M1180.66,325.72a3.92,3.92,0,1,1-3.92-3.92A3.92,3.92,0,0,1,1180.66,325.72Z"/><polygon class="cls-55" points="1013.99 264.23 1016.47 269.26 1022.02 270.06 1018.01 273.98 1018.95 279.51 1013.99 276.9 1009.02 279.51 1009.97 273.98 1005.95 270.06 1011.5 269.26 1013.99 264.23"/><polygon class="cls-56" points="987.9 68.93 991.57 76.35 999.76 77.54 993.83 83.32 995.23 91.48 987.9 87.63 980.58 91.48 981.98 83.32 976.05 77.54 984.24 76.35 987.9 68.93"/><path class="cls-57" d="M907.34,292.53a3.92,3.92,0,1,1-3.92-3.92A3.92,3.92,0,0,1,907.34,292.53Z"/><polygon class="cls-58" points="91.95 827.1 91.3 821.53 86.35 818.9 91.45 816.56 92.42 811.04 96.22 815.17 101.77 814.38 99.02 819.27 101.48 824.31 95.98 823.2 91.95 827.1"/><polygon class="cls-59" points="50.73 1019.78 49.78 1011.55 42.47 1007.67 50 1004.23 51.43 996.08 57.03 1002.17 65.22 1001.01 61.16 1008.22 64.79 1015.66 56.68 1014.02 50.73 1019.78"/><path class="cls-60" d="M265.78,650a5.22,5.22,0,1,1,3.16,6.67A5.22,5.22,0,0,1,265.78,650Z"/><path class="cls-61" d="M201.9,836.37a3.92,3.92,0,1,1,2.37,5A3.92,3.92,0,0,1,201.9,836.37Z"/></g></svg>